<svg xmlns="http://www.w3.org/2000/svg" viewBox="0 0 2400 900" width="2400" height="900">
  <title>Three Stations — Chunky, Built, Belongs in the World</title>
  <desc>Stations drawn like asteroids: solid filled shapes, bumpy edges, full opacity. Heavy plate metal. The ring is thick welded segments, not a perfect circle. Modules are chunky masses, not icons. Same visual weight as the rocks around them.</desc>

  <rect width="2400" height="900" fill="#0a0808"/>

  <text x="400" y="30" text-anchor="middle" fill="#88CCAA" font-family="monospace" font-size="14" opacity="0.6">PROSPECT REFINERY</text>
  <text x="1200" y="30" text-anchor="middle" fill="#CCAA44" font-family="monospace" font-size="14" opacity="0.6">KEPLER YARD</text>
  <text x="2000" y="30" text-anchor="middle" fill="#6688CC" font-family="monospace" font-size="14" opacity="0.6">HELIOS WORKS</text>

  <!-- ============================================================ -->
  <!-- PROSPECT REFINERY -->
  <!-- Chunky. Solid fills. Irregular edges. Welded plates. -->
  <!-- ============================================================ -->
  <g transform="translate(400, 460)">

    <!-- Ring 1 — NOT a perfect circle. Segmented polygon, thick, filled. -->
    <!-- 12-sided polygon approximating circle at r~105, width ~30 -->
    <!-- Outer hull -->
    <polygon points="0,-120 62,-104 107,-60 120,0 107,60 62,104 0,120 -62,104 -107,60 -120,0 -107,-60 -62,-104"
             fill="#1a2418" stroke="#4a6848" stroke-width="1.5" stroke-linejoin="round"/>
    <!-- Inner cutout (the hollow center) -->
    <polygon points="0,-88 46,-76 78,-44 88,0 78,44 46,76 0,88 -46,76 -78,44 -88,0 -78,-44 -46,-76"
             fill="#0a0808" stroke="#3a5438" stroke-width="1" stroke-linejoin="round"/>

    <!-- Panel seam lines on the ring (where plates were welded together) -->
    <line x1="0" y1="-120" x2="0" y2="-88" stroke="#3a5438" stroke-width="0.8" opacity="0.5"/>
    <line x1="107" y1="-60" x2="78" y2="-44" stroke="#3a5438" stroke-width="0.8" opacity="0.4"/>
    <line x1="107" y1="60" x2="78" y2="44" stroke="#3a5438" stroke-width="0.8" opacity="0.4"/>
    <line x1="0" y1="120" x2="0" y2="88" stroke="#3a5438" stroke-width="0.8" opacity="0.4"/>
    <line x1="-107" y1="60" x2="-78" y2="44" stroke="#3a5438" stroke-width="0.8" opacity="0.4"/>
    <line x1="-107" y1="-60" x2="-78" y2="-44" stroke="#3a5438" stroke-width="0.8" opacity="0.4"/>

    <!-- Spoke struts (thick, solid, triangular cross-section) -->
    <polygon points="-6,-88 6,-88 4,-20 -4,-20" fill="#1e2c1e" stroke="#3a5438" stroke-width="0.6"/>
    <polygon points="76,44 82,50 14,10 10,4" fill="#1e2c1e" stroke="#3a5438" stroke-width="0.6"/>
    <polygon points="-76,44 -82,50 -14,10 -10,4" fill="#1e2c1e" stroke="#3a5438" stroke-width="0.6"/>

    <!-- Core hub — solid hex plate, not a dot -->
    <polygon points="0,-22 19,-11 19,11 0,22 -19,11 -19,-11"
             fill="#223020" stroke="#5a7a58" stroke-width="1.2"/>
    <polygon points="0,-12 10,-6 10,6 0,12 -10,6 -10,-6"
             fill="#2a3a28" stroke="#4a6848" stroke-width="0.6"/>
    <circle cx="0" cy="0" r="3" fill="#88CCAA" opacity="0.6"/>

    <!-- === DOCK (slot 0, top) === -->
    <!-- Gap in the ring — the polygon breaks here -->
    <!-- Dock walls are chunky L-shaped brackets -->
    <polygon points="-30,-120 -18,-120 -18,-92 -24,-88 -30,-88"
             fill="#243020" stroke="#5a7a58" stroke-width="1"/>
    <polygon points="18,-120 30,-120 30,-88 24,-88 18,-92"
             fill="#243020" stroke="#5a7a58" stroke-width="1"/>
    <!-- Clamp teeth -->
    <polygon points="-18,-108 -12,-108 -12,-102 -18,-102" fill="#3a5438"/>
    <polygon points="12,-108 18,-108 18,-102 12,-102" fill="#3a5438"/>
    <!-- Guide lights -->
    <circle cx="-15" cy="-104" r="2.5" fill="#88CCAA" opacity="0.7"/>
    <circle cx="15" cy="-104" r="2.5" fill="#88CCAA" opacity="0.7"/>

    <!-- === SIGNAL RELAY (slot 1, ~120deg) === -->
    <!-- Chunky mast bolted to ring outer edge -->
    <g transform="rotate(120)">
      <!-- Mast body — thick, solid rectangle with irregular top -->
      <polygon points="-14,-172 14,-172 16,-168 12,-118 -12,-118 -16,-168"
               fill="#1e2e20" stroke="#4a6848" stroke-width="1"/>
      <!-- Dish — solid circle, not wireframe -->
      <circle cx="0" cy="-148" r="12" fill="#243828" stroke="#5a7a58" stroke-width="1"/>
      <circle cx="0" cy="-148" r="6" fill="#2e4430" stroke="#6a8a68" stroke-width="0.6"/>
      <circle cx="0" cy="-148" r="2.5" fill="#88CCAA" opacity="0.7"/>
      <!-- Beacon tip -->
      <circle cx="0" cy="-174" r="3.5" fill="#88CCAA" opacity="0.5"/>
      <!-- Signal arcs -->
      <path d="M -8,-180 A 10,10 0 0,1 8,-180" fill="none" stroke="#88CCAA" stroke-opacity="0.25" stroke-width="0.8"/>
      <path d="M -14,-186 A 18,18 0 0,1 14,-186" fill="none" stroke="#88CCAA" stroke-opacity="0.12" stroke-width="0.6"/>
      <!-- Mounting bolts where mast meets ring -->
      <circle cx="-8" cy="-120" r="2" fill="#4a6848" opacity="0.6"/>
      <circle cx="8" cy="-120" r="2" fill="#4a6848" opacity="0.6"/>
    </g>

    <!-- === FURNACE (slot 2, ~240deg) — BIG, it's Prospect's identity === -->
    <g transform="rotate(240)">
      <!-- Heavy furnace body — irregular chunky block -->
      <polygon points="-36,-192 -30,-196 30,-196 36,-192 38,-120 34,-116 -34,-116 -38,-120"
               fill="#222a16" stroke="#5a6a3a" stroke-width="1.2"/>
      <!-- Firebox cavity -->
      <polygon points="-22,-180 22,-180 20,-136 -20,-136"
               fill="#181e0e" stroke="#4a5a2a" stroke-width="0.6"/>
      <!-- Fire glow — solid, bright -->
      <circle cx="0" cy="-158" r="16" fill="#3a3810" opacity="0.5"/>
      <circle cx="0" cy="-158" r="10" fill="#5a5420" opacity="0.4"/>
      <circle cx="0" cy="-158" r="5" fill="#887830" opacity="0.6"/>
      <circle cx="0" cy="-158" r="2.5" fill="#CCAA44" opacity="0.7"/>
      <!-- Grate bars — thick enough to see -->
      <line x1="-18" y1="-168" x2="18" y2="-168" stroke="#5a6a3a" stroke-width="1.5" opacity="0.5"/>
      <line x1="-18" y1="-148" x2="18" y2="-148" stroke="#5a6a3a" stroke-width="1.5" opacity="0.5"/>
      <!-- Chimney stacks — solid blocks, the signature -->
      <polygon points="-8,-226 8,-226 10,-196 -10,-196" fill="#2a3418" stroke="#5a6a3a" stroke-width="0.8"/>
      <polygon points="-24,-218 -14,-218 -12,-196 -26,-196" fill="#263016" stroke="#4a5a2a" stroke-width="0.7"/>
      <polygon points="16,-212 24,-212 26,-196 14,-196" fill="#263016" stroke="#4a5a2a" stroke-width="0.7"/>
      <!-- Heat shimmer -->
      <circle cx="0" cy="-232" r="2" fill="#CCAA44" opacity="0.15"/>
      <circle cx="-19" cy="-222" r="1.5" fill="#CCAA44" opacity="0.1"/>
      <!-- Heat fins — chunky stubs, not thin lines -->
      <rect x="-42" y="-180" width="6" height="14" fill="#2a3418" stroke="#4a5a2a" stroke-width="0.5"/>
      <rect x="-42" y="-160" width="6" height="14" fill="#2a3418" stroke="#4a5a2a" stroke-width="0.5"/>
      <rect x="36" y="-180" width="6" height="14" fill="#2a3418" stroke="#4a5a2a" stroke-width="0.5"/>
      <rect x="36" y="-160" width="6" height="14" fill="#2a3418" stroke="#4a5a2a" stroke-width="0.5"/>
      <!-- Mounting plate -->
      <rect x="-18" y="-120" width="36" height="6" fill="#2e3a1e" stroke="#4a5a2a" stroke-width="0.5"/>
    </g>

    <!-- Ring 2 spoke — thick strut -->
    <g transform="rotate(180)">
      <polygon points="-5,-90 5,-90 7,-190 -7,-190" fill="#162018" stroke="#3a5438" stroke-width="0.6"/>
    </g>
    <!-- Ring 2 arc segment (partial — just around the silo) -->
    <g transform="rotate(180)">
      <polygon points="-32,-200 32,-200 34,-190 30,-176 -30,-176 -34,-190"
               fill="#141e14" stroke="#3a5438" stroke-width="0.8"/>
      <!-- Silo — solid drum -->
      <polygon points="-16,-242 16,-242 18,-200 -18,-200"
               fill="#1a2414" stroke="#4a6448" stroke-width="0.8"/>
      <!-- Silo cap -->
      <polygon points="-14,-248 14,-248 16,-242 -16,-242" fill="#223020" stroke="#4a6448" stroke-width="0.5"/>
      <!-- Fill level -->
      <rect x="-12" y="-230" width="24" height="20" fill="#3a5438" opacity="0.15"/>
      <!-- Band rivets -->
      <circle cx="-12" cy="-220" r="1.5" fill="#4a6448" opacity="0.4"/>
      <circle cx="12" cy="-220" r="1.5" fill="#4a6448" opacity="0.4"/>
      <circle cx="-12" cy="-236" r="1.5" fill="#4a6448" opacity="0.4"/>
      <circle cx="12" cy="-236" r="1.5" fill="#4a6448" opacity="0.4"/>
    </g>

    <!-- Solar panel — solid plate on a strut, not wireframe -->
    <g transform="rotate(200)">
      <rect x="-2" y="-40" width="4" height="46" fill="#1a2418" stroke="#3a5438" stroke-width="0.5"/>
      <polygon points="-20,-82 20,-82 22,-40 -22,-40"
               fill="#1a2820" stroke="#3a6438" stroke-width="0.8"/>
      <!-- Panel divider -->
      <line x1="0" y1="-82" x2="0" y2="-40" stroke="#2a4430" stroke-width="0.6"/>
    </g>
  </g>

  <!-- ============================================================ -->
  <!-- KEPLER YARD -->
  <!-- ============================================================ -->
  <g transform="translate(1200, 460)">

    <!-- Ring 1 hull — thick segmented polygon -->
    <polygon points="0,-115 60,-100 103,-58 115,0 103,58 60,100 0,115 -60,100 -103,58 -115,0 -103,-58 -60,-100"
             fill="#201e10" stroke="#5a5430" stroke-width="1.5" stroke-linejoin="round"/>
    <polygon points="0,-84 44,-72 74,-42 84,0 74,42 44,72 0,84 -44,72 -74,42 -84,0 -74,-42 -44,-72"
             fill="#0a0808" stroke="#4a4428" stroke-width="1" stroke-linejoin="round"/>
    <!-- Seam lines -->
    <line x1="60" y1="-100" x2="44" y2="-72" stroke="#4a4428" stroke-width="0.8" opacity="0.4"/>
    <line x1="-60" y1="-100" x2="-44" y2="-72" stroke="#4a4428" stroke-width="0.8" opacity="0.4"/>
    <line x1="0" y1="115" x2="0" y2="84" stroke="#4a4428" stroke-width="0.8" opacity="0.4"/>

    <!-- Spokes -->
    <polygon points="-5,-84 5,-84 4,-18 -4,-18" fill="#242210" stroke="#4a4428" stroke-width="0.5"/>
    <polygon points="72,42 78,48 14,9 10,3" fill="#242210" stroke="#4a4428" stroke-width="0.5"/>
    <polygon points="-72,42 -78,48 -14,9 -10,3" fill="#242210" stroke="#4a4428" stroke-width="0.5"/>

    <!-- Core -->
    <polygon points="0,-20 17,-10 17,10 0,20 -17,10 -17,-10"
             fill="#282410" stroke="#6a6438" stroke-width="1.2"/>
    <circle cx="0" cy="0" r="3" fill="#CCAA44" opacity="0.5"/>

    <!-- Dock -->
    <polygon points="-28,-115 -16,-115 -16,-88 -22,-84 -28,-84"
             fill="#2a2610" stroke="#6a6438" stroke-width="1"/>
    <polygon points="16,-115 28,-115 28,-84 22,-84 16,-88"
             fill="#2a2610" stroke="#6a6438" stroke-width="1"/>
    <circle cx="-14" cy="-100" r="2.5" fill="#CCAA44" opacity="0.6"/>
    <circle cx="14" cy="-100" r="2.5" fill="#CCAA44" opacity="0.6"/>

    <!-- Relay (120deg) -->
    <g transform="rotate(120)">
      <polygon points="-12,-162 12,-162 14,-158 10,-116 -10,-116 -14,-158"
               fill="#1e2e20" stroke="#4a6848" stroke-width="0.8"/>
      <circle cx="0" cy="-142" r="10" fill="#243828" stroke="#5a7a58" stroke-width="0.8"/>
      <circle cx="0" cy="-142" r="2" fill="#88CCAA" opacity="0.6"/>
      <circle cx="0" cy="-164" r="3" fill="#88CCAA" opacity="0.4"/>
    </g>

    <!-- Ore Silo (240deg) -->
    <g transform="rotate(240)">
      <polygon points="-16,-160 16,-160 18,-116 -18,-116"
               fill="#1e2414" stroke="#5a6438" stroke-width="0.8"/>
      <rect x="-10" y="-152" width="20" height="28" fill="#141a0e"/>
      <rect x="-8" y="-140" width="16" height="16" fill="#3a4428" opacity="0.15"/>
    </g>

    <!-- Ring 2 hull -->
    <polygon points="0,-210 82,-192 155,-128 192,-60 198,0 192,60 155,128 110,175 60,198 0,210 -60,198 -110,175 -155,128 -192,60 -198,0 -192,-60 -155,-128 -82,-192"
             fill="#1a1810" stroke="#4a4428" stroke-width="1.2" stroke-linejoin="round"/>
    <polygon points="0,-180 70,-164 132,-110 164,-52 170,0 164,52 132,110 94,150 52,170 0,180 -52,170 -94,150 -132,110 -164,52 -170,0 -164,-52 -132,-110 -70,-164"
             fill="#0a0808" stroke="#3a3420" stroke-width="0.8" stroke-linejoin="round"/>

    <!-- Spokes R1→R2 -->
    <g transform="rotate(0)"><polygon points="-4,-115 4,-115 5,-182 -5,-182" fill="#1e1c0e" stroke="#3a3420" stroke-width="0.4"/></g>
    <g transform="rotate(90)"><polygon points="-4,-115 4,-115 5,-182 -5,-182" fill="#1e1c0e" stroke="#3a3420" stroke-width="0.4"/></g>
    <g transform="rotate(180)"><polygon points="-4,-115 4,-115 5,-182 -5,-182" fill="#1e1c0e" stroke="#3a3420" stroke-width="0.4"/></g>
    <g transform="rotate(270)"><polygon points="-4,-115 4,-115 5,-182 -5,-182" fill="#1e1c0e" stroke="#3a3420" stroke-width="0.4"/></g>

    <!-- Frame Press (0deg) -->
    <g transform="rotate(0)">
      <polygon points="-24,-256 24,-256 26,-208 -26,-208"
               fill="#222010" stroke="#6a6438" stroke-width="1"/>
      <!-- Press ram columns -->
      <rect x="-22" y="-250" width="6" height="38" fill="#2e2c14" stroke="#5a5430" stroke-width="0.4"/>
      <rect x="16" y="-250" width="6" height="38" fill="#2e2c14" stroke="#5a5430" stroke-width="0.4"/>
      <!-- Stamp plate -->
      <rect x="-12" y="-240" width="24" height="8" fill="#3a3818" stroke="#6a6438" stroke-width="0.4"/>
      <line x1="-8" y1="-236" x2="8" y2="-236" stroke="#CCAA44" stroke-opacity="0.4" stroke-width="0.6"/>
      <line x1="0" y1="-242" x2="0" y2="-230" stroke="#CCAA44" stroke-opacity="0.4" stroke-width="0.6"/>
    </g>

    <!-- Laser Fab (90deg) -->
    <g transform="rotate(90)">
      <polygon points="-20,-248 20,-248 22,-208 -22,-208"
               fill="#181e28" stroke="#4a5a78" stroke-width="0.8"/>
      <circle cx="0" cy="-228" r="12" fill="#14202e" stroke="#4a6a88" stroke-width="0.6"/>
      <circle cx="0" cy="-228" r="5" fill="#1a2a3a" stroke="#5a7a98" stroke-width="0.4"/>
      <circle cx="0" cy="-228" r="2" fill="#6688CC" opacity="0.4"/>
    </g>

    <!-- Tractor Fab (180deg) -->
    <g transform="rotate(180)">
      <polygon points="-20,-248 20,-248 22,-208 -22,-208"
               fill="#1e1828" stroke="#5a4878" stroke-width="0.8"/>
      <circle cx="0" cy="-228" r="12" fill="#1a1430" stroke="#5a4888" stroke-width="0.6"/>
      <circle cx="0" cy="-228" r="6" fill="#221a38"/>
      <circle cx="0" cy="-228" r="2.5" fill="#8866CC" opacity="0.3"/>
    </g>

    <!-- SHIPYARD (270deg) — SIGNATURE: massive gantry -->
    <g transform="rotate(270)">
      <!-- Gantry — solid heavy frame, not wireframe -->
      <!-- Left pillar -->
      <polygon points="-40,-304 -30,-308 -28,-208 -42,-208"
               fill="#2a2810" stroke="#6a6438" stroke-width="1.2"/>
      <!-- Right pillar -->
      <polygon points="28,-308 40,-304 42,-208 28,-208"
               fill="#2a2810" stroke="#6a6438" stroke-width="1.2"/>
      <!-- Top beam — heavy, solid -->
      <polygon points="-42,-308 42,-308 44,-296 -44,-296"
               fill="#323010" stroke="#7a7448" stroke-width="1"/>
      <!-- Bottom plate -->
      <polygon points="-42,-216 42,-216 42,-208 -42,-208"
               fill="#282610" stroke="#5a5430" stroke-width="0.6"/>
      <!-- Cross bracing — visible but not dominant -->
      <line x1="-30" y1="-296" x2="30" y2="-218" stroke="#4a4428" stroke-width="1.2" opacity="0.4"/>
      <line x1="30" y1="-296" x2="-30" y2="-218" stroke="#4a4428" stroke-width="1.2" opacity="0.4"/>
      <!-- Crane boom -->
      <polygon points="8,-330 16,-330 18,-308 6,-308" fill="#322e10" stroke="#5a5430" stroke-width="0.6"/>
      <!-- Crane cable + hook -->
      <line x1="12" y1="-308" x2="0" y2="-260" stroke="#6a6438" stroke-width="0.8" opacity="0.5"/>
      <circle cx="0" cy="-258" r="3" fill="#6a6438" opacity="0.3"/>
      <!-- Work lights -->
      <circle cx="-34" cy="-270" r="2.5" fill="#CCAA44" opacity="0.35"/>
      <circle cx="34" cy="-270" r="2.5" fill="#CCAA44" opacity="0.35"/>
    </g>

    <!-- Solar panels -->
    <g transform="rotate(155)">
      <rect x="-2" y="-35" width="4" height="40" fill="#1e1c10" stroke="#3a3420" stroke-width="0.4"/>
      <polygon points="-18,-72 18,-72 20,-36 -20,-36" fill="#1a2418" stroke="#3a5438" stroke-width="0.7"/>
      <line x1="0" y1="-72" x2="0" y2="-36" stroke="#2a3a28" stroke-width="0.5"/>
    </g>
  </g>

  <!-- ============================================================ -->
  <!-- HELIOS WORKS — 3 rings, heavy industry -->
  <!-- ============================================================ -->
  <g transform="translate(2000, 460)">

    <!-- Ring 1 hull -->
    <polygon points="0,-108 56,-94 96,-54 108,0 96,54 56,94 0,108 -56,94 -96,54 -108,0 -96,-54 -56,-94"
             fill="#161828" stroke="#3a4468" stroke-width="1.5" stroke-linejoin="round"/>
    <polygon points="0,-78 40,-68 68,-38 78,0 68,38 40,68 0,78 -40,68 -68,38 -78,0 -68,-38 -40,-68"
             fill="#0a0808" stroke="#2e3858" stroke-width="1" stroke-linejoin="round"/>

    <!-- Spokes R1 -->
    <polygon points="-5,-78 5,-78 4,-16 -4,-16" fill="#1a1e2e" stroke="#2e3858" stroke-width="0.5"/>
    <polygon points="68,38 74,44 12,8 8,2" fill="#1a1e2e" stroke="#2e3858" stroke-width="0.5"/>
    <polygon points="-68,38 -74,44 -12,8 -8,2" fill="#1a1e2e" stroke="#2e3858" stroke-width="0.5"/>

    <!-- Core -->
    <polygon points="0,-18 16,-9 16,9 0,18 -16,9 -16,-9"
             fill="#1e2234" stroke="#4a5478" stroke-width="1.2"/>
    <circle cx="0" cy="0" r="3" fill="#6688CC" opacity="0.5"/>

    <!-- Dock -->
    <polygon points="-26,-108 -14,-108 -14,-82 -20,-78 -26,-78" fill="#1e2234" stroke="#4a5478" stroke-width="0.8"/>
    <polygon points="14,-108 26,-108 26,-78 20,-78 14,-82" fill="#1e2234" stroke="#4a5478" stroke-width="0.8"/>
    <circle cx="-12" cy="-94" r="2" fill="#6688CC" opacity="0.6"/>
    <circle cx="12" cy="-94" r="2" fill="#6688CC" opacity="0.6"/>

    <!-- Relay (120deg) -->
    <g transform="rotate(120)">
      <polygon points="-10,-150 10,-150 12,-146 8,-108 -8,-108 -12,-146"
               fill="#1e2e20" stroke="#4a6848" stroke-width="0.7"/>
      <circle cx="0" cy="-132" r="8" fill="#243828" stroke="#5a7a58" stroke-width="0.6"/>
      <circle cx="0" cy="-132" r="2" fill="#88CCAA" opacity="0.5"/>
      <circle cx="0" cy="-152" r="2.5" fill="#88CCAA" opacity="0.35"/>
    </g>

    <!-- Furnace Fe (240deg) -->
    <g transform="rotate(240)">
      <polygon points="-22,-154 22,-154 24,-108 -24,-108" fill="#1e2416" stroke="#4a5a3a" stroke-width="0.8"/>
      <rect x="-14" y="-146" width="28" height="24" fill="#161a0e"/>
      <circle cx="0" cy="-134" r="8" fill="#3a3810" opacity="0.4"/>
      <circle cx="0" cy="-134" r="4" fill="#5a5420" opacity="0.3"/>
      <circle cx="0" cy="-134" r="2" fill="#CCAA44" opacity="0.5"/>
      <rect x="-18" y="-154" width="6" height="10" fill="#222a14" stroke="#3a4a2a" stroke-width="0.4"/>
      <rect x="12" y="-154" width="6" height="10" fill="#222a14" stroke="#3a4a2a" stroke-width="0.4"/>
    </g>

    <!-- Ring 2 hull — 16-sided -->
    <polygon points="0,-185 48,-178 90,-152 122,-112 144,-62 150,0 144,62 122,112 90,152 48,178 0,185 -48,178 -90,152 -122,112 -144,62 -150,0 -144,-62 -122,-112 -90,-152 -48,-178"
             fill="#141828" stroke="#2e3858" stroke-width="1.2" stroke-linejoin="round"/>
    <polygon points="0,-158 42,-152 78,-130 104,-96 122,-54 128,0 122,54 104,96 78,130 42,152 0,158 -42,152 -78,130 -104,96 -122,54 -128,0 -122,-54 -104,-96 -78,-130 -42,-152"
             fill="#0a0808" stroke="#242e48" stroke-width="0.8" stroke-linejoin="round"/>

    <!-- Spokes R1→R2 -->
    <g transform="rotate(36)"><polygon points="-3,-108 3,-108 4,-160 -4,-160" fill="#141828" stroke="#242e48" stroke-width="0.3"/></g>
    <g transform="rotate(108)"><polygon points="-3,-108 3,-108 4,-160 -4,-160" fill="#141828" stroke="#242e48" stroke-width="0.3"/></g>
    <g transform="rotate(180)"><polygon points="-3,-108 3,-108 4,-160 -4,-160" fill="#141828" stroke="#242e48" stroke-width="0.3"/></g>
    <g transform="rotate(252)"><polygon points="-3,-108 3,-108 4,-160 -4,-160" fill="#141828" stroke="#242e48" stroke-width="0.3"/></g>
    <g transform="rotate(324)"><polygon points="-3,-108 3,-108 4,-160 -4,-160" fill="#141828" stroke="#242e48" stroke-width="0.3"/></g>

    <!-- R2 modules -->
    <!-- Ore Silo (0deg) -->
    <g transform="rotate(0)">
      <polygon points="-12,-210 12,-210 14,-186 -14,-186" fill="#1a2214" stroke="#3a5438" stroke-width="0.6"/>
      <rect x="-8" y="-206" width="16" height="16" fill="#121a0e"/>
    </g>
    <!-- Furnace CU (72deg — blue glow) -->
    <g transform="rotate(72)">
      <polygon points="-18,-218 18,-218 20,-186 -20,-186" fill="#141830" stroke="#3a4878" stroke-width="0.8"/>
      <rect x="-10" y="-210" width="20" height="16" fill="#101428"/>
      <circle cx="0" cy="-202" r="5" fill="#2a3868" opacity="0.4"/>
      <circle cx="0" cy="-202" r="2" fill="#4466AA" opacity="0.5"/>
      <rect x="-14" y="-218" width="4" height="8" fill="#1a2038" stroke="#3a4878" stroke-width="0.3"/>
      <rect x="10" y="-218" width="4" height="8" fill="#1a2038" stroke="#3a4878" stroke-width="0.3"/>
    </g>
    <!-- Furnace CR (144deg — purple glow) -->
    <g transform="rotate(144)">
      <polygon points="-18,-218 18,-218 20,-186 -20,-186" fill="#1e1438" stroke="#4a3878" stroke-width="0.8"/>
      <rect x="-10" y="-210" width="20" height="16" fill="#141028"/>
      <circle cx="0" cy="-202" r="5" fill="#382868" opacity="0.4"/>
      <circle cx="0" cy="-202" r="2" fill="#7755BB" opacity="0.5"/>
      <rect x="-14" y="-218" width="4" height="8" fill="#201438" stroke="#4a3878" stroke-width="0.3"/>
      <rect x="10" y="-218" width="4" height="8" fill="#201438" stroke="#4a3878" stroke-width="0.3"/>
    </g>
    <!-- Laser Fab (216deg) -->
    <g transform="rotate(216)">
      <polygon points="-16,-214 16,-214 18,-186 -18,-186" fill="#141a2e" stroke="#3a4a6a" stroke-width="0.7"/>
      <circle cx="0" cy="-200" r="9" fill="#121828" stroke="#3a5a78" stroke-width="0.5"/>
      <circle cx="0" cy="-200" r="2" fill="#6688CC" opacity="0.3"/>
    </g>
    <!-- Tractor Fab (288deg) -->
    <g transform="rotate(288)">
      <polygon points="-16,-214 16,-214 18,-186 -18,-186" fill="#1a1430" stroke="#4a3868" stroke-width="0.7"/>
      <circle cx="0" cy="-200" r="9" fill="#181030" stroke="#4a3878" stroke-width="0.5"/>
      <circle cx="0" cy="-200" r="2" fill="#8866CC" opacity="0.25"/>
    </g>

    <!-- Ring 3 hull — 20-sided, the big outer ring -->
    <polygon points="0,-270 70,-262 134,-238 186,-198 224,-144 246,-82 252,0 246,82 224,144 186,198 134,238 70,262 0,270 -70,262 -134,238 -186,198 -224,144 -246,82 -252,0 -246,-82 -224,-144 -186,-198 -134,-238 -70,-262"
             fill="#121628" stroke="#242e48" stroke-width="1" stroke-linejoin="round"/>
    <polygon points="0,-244 64,-236 120,-214 168,-180 202,-130 222,-74 228,0 222,74 202,130 168,180 120,214 64,236 0,244 -64,236 -120,214 -168,180 -202,130 -222,74 -228,0 -222,-74 -202,-130 -168,-180 -120,-214 -64,-236"
             fill="#0a0808" stroke="#1e2840" stroke-width="0.8" stroke-linejoin="round"/>

    <!-- Spokes R2→R3 -->
    <g transform="rotate(20)"><polygon points="-3,-185 3,-185 4,-246 -4,-246" fill="#121628" stroke="#1e2840" stroke-width="0.3"/></g>
    <g transform="rotate(100)"><polygon points="-3,-185 3,-185 4,-246 -4,-246" fill="#121628" stroke="#1e2840" stroke-width="0.3"/></g>
    <g transform="rotate(180)"><polygon points="-3,-185 3,-185 4,-246 -4,-246" fill="#121628" stroke="#1e2840" stroke-width="0.3"/></g>
    <g transform="rotate(260)"><polygon points="-3,-185 3,-185 4,-246 -4,-246" fill="#121628" stroke="#1e2840" stroke-width="0.3"/></g>
    <g transform="rotate(340)"><polygon points="-3,-185 3,-185 4,-246 -4,-246" fill="#121628" stroke="#1e2840" stroke-width="0.3"/></g>

    <!-- R3 modules (smaller, denser) -->
    <!-- Silo x2 -->
    <g transform="rotate(0)"><polygon points="-10,-290 10,-290 12,-270 -12,-270" fill="#141a10" stroke="#3a4a38" stroke-width="0.5"/></g>
    <g transform="rotate(40)"><polygon points="-10,-290 10,-290 12,-270 -12,-270" fill="#141a10" stroke="#3a4a38" stroke-width="0.5"/></g>
    <!-- Furnace CU -->
    <g transform="rotate(80)">
      <polygon points="-14,-296 14,-296 16,-270 -16,-270" fill="#141830" stroke="#3a4878" stroke-width="0.6"/>
      <circle cx="0" cy="-283" r="4" fill="#2a3868" opacity="0.3"/>
      <circle cx="0" cy="-283" r="1.5" fill="#4466AA" opacity="0.4"/>
      <!-- HEAT CROWN FINS — Helios signature -->
      <rect x="-12" y="-310" width="4" height="16" fill="#1a2040" stroke="#3a4878" stroke-width="0.4"/>
      <rect x="-4" y="-314" width="4" height="20" fill="#1a2040" stroke="#3a4878" stroke-width="0.4"/>
      <rect x="4" y="-312" width="4" height="18" fill="#1a2040" stroke="#3a4878" stroke-width="0.4"/>
    </g>
    <!-- Furnace CR -->
    <g transform="rotate(120)">
      <polygon points="-14,-296 14,-296 16,-270 -16,-270" fill="#1e1438" stroke="#4a3878" stroke-width="0.6"/>
      <circle cx="0" cy="-283" r="4" fill="#382868" opacity="0.3"/>
      <circle cx="0" cy="-283" r="1.5" fill="#7755BB" opacity="0.4"/>
      <!-- Crown fins -->
      <rect x="-12" y="-310" width="4" height="16" fill="#241840" stroke="#4a3878" stroke-width="0.4"/>
      <rect x="-4" y="-314" width="4" height="20" fill="#241840" stroke="#4a3878" stroke-width="0.4"/>
      <rect x="4" y="-312" width="4" height="18" fill="#241840" stroke="#4a3878" stroke-width="0.4"/>
    </g>
    <!-- Shipyard -->
    <g transform="rotate(160)">
      <polygon points="-16,-298 16,-298 18,-270 -18,-270" fill="#1e1c10" stroke="#4a4828" stroke-width="0.6"/>
      <rect x="-10" y="-292" width="20" height="18" fill="none" stroke="#4a4828" stroke-width="0.4" opacity="0.4"/>
      <line x1="-10" y1="-292" x2="10" y2="-274" stroke="#4a4828" stroke-width="0.3" opacity="0.3"/>
      <line x1="10" y1="-292" x2="-10" y2="-274" stroke="#4a4828" stroke-width="0.3" opacity="0.3"/>
    </g>

    <!-- Solar panels -->
    <g transform="rotate(55)">
      <rect x="-2" y="-30" width="4" height="36" fill="#141828" stroke="#2e3858" stroke-width="0.4"/>
      <polygon points="-16,-62 16,-62 18,-30 -18,-30" fill="#142028" stroke="#2a4a58" stroke-width="0.6"/>
    </g>
    <g transform="rotate(220)">
      <rect x="-2" y="-30" width="4" height="32" fill="#141828" stroke="#2e3858" stroke-width="0.3"/>
      <polygon points="-12,-58 12,-58 14,-30 -14,-30" fill="#142028" stroke="#2a4a58" stroke-width="0.5"/>
    </g>
  </g>

  <text x="1200" y="870" text-anchor="middle" fill="#555555" font-family="monospace" font-size="10">Solid filled polygons. Same rendering approach as asteroids. Belongs in the world.</text>
</svg>