<svg xmlns="http://www.w3.org/2000/svg" viewBox="0 0 2400 900" width="2400" height="900">
  <title>Three Starter Stations — Conveyor Bus Style</title>

  <defs>
    <radialGradient id="sg" cx="50%" cy="50%" r="50%">
      <stop offset="0%" stop-color="#FFE8B0" stop-opacity="0.05"/>
      <stop offset="100%" stop-color="#0a0808" stop-opacity="0"/>
    </radialGradient>
  </defs>

  <rect width="2400" height="900" fill="#0a0808"/>

  <!-- Labels -->
  <text x="400" y="32" text-anchor="middle" fill="#88CCAA" font-family="monospace" font-size="16" opacity="0.8">PROSPECT REFINERY</text>
  <text x="400" y="52" text-anchor="middle" fill="#667766" font-family="monospace" font-size="10">Ring 1: Dock + Relay + Furnace | Ring 2: Ore Silo</text>
  <text x="400" y="68" text-anchor="middle" fill="#556655" font-family="monospace" font-size="9">Small. Smelts ferrite. First station new players visit.</text>

  <text x="1200" y="32" text-anchor="middle" fill="#CCAA44" font-family="monospace" font-size="16" opacity="0.8">KEPLER YARD</text>
  <text x="1200" y="52" text-anchor="middle" fill="#776644" font-family="monospace" font-size="10">Ring 1: Dock + Relay + Silo | Ring 2: Press + LaserFab + TractorFab + Shipyard</text>
  <text x="1200" y="68" text-anchor="middle" fill="#665544" font-family="monospace" font-size="9">Fabrication hub. Builds frames, modules, scaffolds.</text>

  <text x="2000" y="32" text-anchor="middle" fill="#6688CC" font-family="monospace" font-size="16" opacity="0.8">HELIOS WORKS</text>
  <text x="2000" y="52" text-anchor="middle" fill="#556688" font-family="monospace" font-size="10">Ring 1-3: Full smelting + fab. The big station.</text>
  <text x="2000" y="68" text-anchor="middle" fill="#445566" font-family="monospace" font-size="9">Advanced smelting. Copper and crystal. Three rings.</text>

  <!-- ============================================================ -->
  <!-- PROSPECT REFINERY — small, 2-ring -->
  <!-- Ring 1 (r=100): slot0=Dock, slot1=Relay, slot2=Furnace -->
  <!-- Ring 2 (r=190): slot3=OreSilo (offset ~60deg) -->
  <!-- ============================================================ -->
  <g transform="translate(400, 480)">
    <circle cx="0" cy="0" r="300" fill="url(#sg)"/>

    <!-- Solar array (inward, one panel) -->
    <g transform="rotate(200)">
      <line x1="0" y1="-30" x2="0" y2="-90" stroke="#88CCAA" stroke-opacity="0.1" stroke-width="0.8"/>
      <rect x="-16" y="-88" width="32" height="48" fill="#111e16" stroke="#88CCAA" stroke-opacity="0.15" stroke-width="0.6"/>
      <line x1="0" y1="-88" x2="0" y2="-40" stroke="#88CCAA" stroke-opacity="0.05" stroke-width="0.3"/>
      <line x1="-16" y1="-64" x2="16" y2="-64" stroke="#88CCAA" stroke-opacity="0.05" stroke-width="0.3"/>
    </g>

    <!-- Core -->
    <circle cx="0" cy="0" r="10" fill="#121e18" stroke="#88CCAA" stroke-opacity="0.25" stroke-width="0.8"/>
    <circle cx="0" cy="0" r="3" fill="#88CCAA" opacity="0.4"/>

    <!-- RING 1 BUS (r=100) -->
    <circle cx="0" cy="0" r="100" fill="none" stroke="#88CCAA" stroke-opacity="0.05" stroke-width="8"/>
    <circle cx="0" cy="0" r="100" fill="none" stroke="#88CCAA" stroke-opacity="0.22" stroke-width="1.5"/>
    <!-- Energy pulses -->
    <g transform="rotate(25)"><circle cx="0" cy="-100" r="2.5" fill="#88CCAA" opacity="0.35"/></g>
    <g transform="rotate(160)"><circle cx="0" cy="-100" r="2" fill="#B8CC72" opacity="0.25"/></g>

    <!-- Spokes -->
    <line x1="0" y1="-10" x2="0" y2="-86" stroke="#88CCAA" stroke-opacity="0.1" stroke-width="1.5"/>
    <line x1="8" y1="6" x2="75" y2="43" stroke="#88CCAA" stroke-opacity="0.1" stroke-width="1.5"/>
    <line x1="-8" y1="6" x2="-75" y2="43" stroke="#88CCAA" stroke-opacity="0.1" stroke-width="1.5"/>

    <!-- SLOT 0: DOCK (0deg = top) -->
    <g transform="rotate(0)">
      <!-- Dock walls (gap in ring) -->
      <rect x="-22" y="-155" width="10" height="58" fill="#162420" stroke="#88CCAA" stroke-opacity="0.28" stroke-width="0.8"/>
      <rect x="12" y="-155" width="10" height="58" fill="#162420" stroke="#88CCAA" stroke-opacity="0.28" stroke-width="0.8"/>
      <!-- Clamps -->
      <rect x="-12" y="-140" width="6" height="3" fill="#2a3a32" stroke="#88CCAA" stroke-opacity="0.25" stroke-width="0.4"/>
      <rect x="6" y="-140" width="6" height="3" fill="#2a3a32" stroke="#88CCAA" stroke-opacity="0.25" stroke-width="0.4"/>
      <rect x="-12" y="-112" width="6" height="3" fill="#2a3a32" stroke="#88CCAA" stroke-opacity="0.25" stroke-width="0.4"/>
      <rect x="6" y="-112" width="6" height="3" fill="#2a3a32" stroke="#88CCAA" stroke-opacity="0.25" stroke-width="0.4"/>
      <!-- Guide lights -->
      <circle cx="-13" cy="-126" r="2.5" fill="#88CCAA" opacity="0.5"/>
      <circle cx="13" cy="-126" r="2.5" fill="#88CCAA" opacity="0.5"/>
      <!-- Floor -->
      <rect x="-10" y="-152" width="20" height="52" fill="#080e0a"/>
      <!-- Approach -->
      <line x1="-13" y1="-157" x2="-13" y2="-175" stroke="#88CCAA" stroke-opacity="0.08" stroke-dasharray="3,3" stroke-width="0.4"/>
      <line x1="13" y1="-157" x2="13" y2="-175" stroke="#88CCAA" stroke-opacity="0.08" stroke-dasharray="3,3" stroke-width="0.4"/>
    </g>

    <!-- SLOT 1: SIGNAL RELAY (120deg) -->
    <g transform="rotate(120)">
      <rect x="-2" y="-112" width="4" height="14" fill="#1a2a22" stroke="#88CCAA" stroke-opacity="0.15" stroke-width="0.4"/>
      <!-- Tall mast -->
      <rect x="-10" y="-170" width="20" height="58" fill="#162820" stroke="#88CCAA" stroke-opacity="0.28" stroke-width="0.8"/>
      <!-- Dish -->
      <circle cx="0" cy="-144" r="8" fill="#12201a" stroke="#88CCAA" stroke-opacity="0.2" stroke-width="0.4"/>
      <circle cx="0" cy="-144" r="3.5" fill="#1a3028" stroke="#88CCAA" stroke-opacity="0.18" stroke-width="0.3"/>
      <circle cx="0" cy="-144" r="1.5" fill="#88CCAA" opacity="0.5"/>
      <!-- Antenna -->
      <rect x="-1.5" y="-180" width="3" height="12" fill="#1e3028" stroke="#88CCAA" stroke-opacity="0.2" stroke-width="0.3"/>
      <circle cx="0" cy="-182" r="2" fill="#88CCAA" opacity="0.35"/>
      <!-- Signal arcs -->
      <path d="M -8,-186 A 10,10 0 0,1 8,-186" fill="none" stroke="#88CCAA" stroke-opacity="0.12" stroke-width="0.4"/>
      <path d="M -14,-192 A 18,18 0 0,1 14,-192" fill="none" stroke="#88CCAA" stroke-opacity="0.07" stroke-width="0.3"/>
    </g>

    <!-- SLOT 2: FURNACE (240deg) -->
    <g transform="rotate(240)">
      <rect x="-3" y="-112" width="6" height="14" fill="#222a1a" stroke="#B8CC72" stroke-opacity="0.18" stroke-width="0.4"/>
      <!-- Heavy box -->
      <rect x="-26" y="-170" width="52" height="58" fill="#1a2016" stroke="#B8CC72" stroke-opacity="0.28" stroke-width="1"/>
      <!-- Firebox -->
      <rect x="-14" y="-160" width="28" height="32" fill="#141808" stroke="#B8CC72" stroke-opacity="0.15" stroke-width="0.4"/>
      <circle cx="0" cy="-144" r="12" fill="#B8CC72" opacity="0.04"/>
      <circle cx="0" cy="-144" r="7" fill="#998822" opacity="0.06"/>
      <circle cx="0" cy="-144" r="4" fill="#CCAA44" opacity="0.1"/>
      <circle cx="0" cy="-144" r="2" fill="#FFCC66" opacity="0.25"/>
      <!-- Grates -->
      <line x1="-12" y1="-152" x2="12" y2="-152" stroke="#B8CC72" stroke-opacity="0.18" stroke-width="0.5"/>
      <line x1="-12" y1="-144" x2="12" y2="-144" stroke="#B8CC72" stroke-opacity="0.14" stroke-width="0.5"/>
      <line x1="-12" y1="-136" x2="12" y2="-136" stroke="#B8CC72" stroke-opacity="0.18" stroke-width="0.5"/>
      <!-- Heat fins -->
      <g stroke="#B8CC72" stroke-opacity="0.12" stroke-width="0.8">
        <line x1="-18" y1="-170" x2="-18" y2="-180"/>
        <line x1="-10" y1="-170" x2="-10" y2="-182"/>
        <line x1="-2" y1="-170" x2="-2" y2="-182"/>
        <line x1="6" y1="-170" x2="6" y2="-182"/>
        <line x1="14" y1="-170" x2="14" y2="-180"/>
      </g>
      <!-- Ports -->
      <rect x="-10" y="-114" width="6" height="3" fill="#B8CC72" opacity="0.15"/>
      <rect x="4" y="-114" width="6" height="3" fill="#CCAA44" opacity="0.15"/>
    </g>

    <!-- RING 2 BUS (r=190) — partial, just where silo is -->
    <!-- Spoke from Ring 1 to Ring 2 -->
    <g transform="rotate(180)">
      <line x1="0" y1="-112" x2="0" y2="-178" stroke="#88CCAA" stroke-opacity="0.12" stroke-width="1.5"/>
      <line x1="0" y1="-112" x2="0" y2="-178" stroke="#88CCAA" stroke-opacity="0.03" stroke-width="6"/>
      <!-- Pulse -->
      <circle cx="0" cy="-150" r="1.5" fill="#B8CC72" opacity="0.2"/>
    </g>
    <!-- Ring 2 arc stub -->
    <path d="M -50,185 A 190,190 0 0,0 50,185" fill="none" stroke="#88CCAA" stroke-opacity="0.1" stroke-width="1.2"/>
    <path d="M -50,185 A 190,190 0 0,0 50,185" fill="none" stroke="#88CCAA" stroke-opacity="0.025" stroke-width="6"/>

    <!-- RING 2 SLOT 3: ORE SILO -->
    <g transform="rotate(180)">
      <rect x="-2" y="-190" width="4" height="10" fill="#1e2818" stroke="#B8CC72" stroke-opacity="0.12" stroke-width="0.3"/>
      <!-- Silo — tall narrow -->
      <rect x="-14" y="-244" width="28" height="44" fill="#161e14" stroke="#B8CC72" stroke-opacity="0.22" stroke-width="0.8"/>
      <!-- Concentric depth -->
      <rect x="-8" y="-238" width="16" height="32" fill="#0e160c" stroke="#B8CC72" stroke-opacity="0.1" stroke-width="0.3"/>
      <!-- Fill level -->
      <rect x="-6" y="-224" width="12" height="18" fill="#B8CC72" opacity="0.05"/>
      <!-- Band lines -->
      <line x1="-14" y1="-226" x2="14" y2="-226" stroke="#B8CC72" stroke-opacity="0.08" stroke-width="0.3"/>
      <line x1="-14" y1="-214" x2="14" y2="-214" stroke="#B8CC72" stroke-opacity="0.08" stroke-width="0.3"/>
    </g>

    <!-- Label -->
    <text x="0" y="260" text-anchor="middle" fill="#88CCAA" font-family="monospace" font-size="9" opacity="0.3">ore → furnace → ingots</text>
  </g>

  <!-- ============================================================ -->
  <!-- KEPLER YARD — medium, 2-ring, fabrication heavy -->
  <!-- Ring 1 (r=100): Dock, Relay, OreSilo -->
  <!-- Ring 2 (r=190): FramePress, LaserFab, TractorFab, Shipyard -->
  <!-- ============================================================ -->
  <g transform="translate(1200, 480)">
    <circle cx="0" cy="0" r="360" fill="url(#sg)"/>

    <!-- Solar arrays -->
    <g transform="rotate(150)">
      <line x1="0" y1="-30" x2="0" y2="-85" stroke="#88CCAA" stroke-opacity="0.1" stroke-width="0.8"/>
      <rect x="-14" y="-82" width="28" height="40" fill="#111e16" stroke="#88CCAA" stroke-opacity="0.14" stroke-width="0.6"/>
      <line x1="0" y1="-82" x2="0" y2="-42" stroke="#88CCAA" stroke-opacity="0.04" stroke-width="0.3"/>
    </g>
    <g transform="rotate(280)">
      <line x1="0" y1="-30" x2="0" y2="-85" stroke="#88CCAA" stroke-opacity="0.1" stroke-width="0.8"/>
      <rect x="-14" y="-82" width="28" height="40" fill="#111e16" stroke="#88CCAA" stroke-opacity="0.14" stroke-width="0.6"/>
      <line x1="0" y1="-82" x2="0" y2="-42" stroke="#88CCAA" stroke-opacity="0.04" stroke-width="0.3"/>
    </g>

    <!-- Core -->
    <circle cx="0" cy="0" r="10" fill="#1a1e14" stroke="#CCAA44" stroke-opacity="0.2" stroke-width="0.8"/>
    <circle cx="0" cy="0" r="3" fill="#CCAA44" opacity="0.35"/>

    <!-- RING 1 BUS -->
    <circle cx="0" cy="0" r="100" fill="none" stroke="#CCAA44" stroke-opacity="0.04" stroke-width="8"/>
    <circle cx="0" cy="0" r="100" fill="none" stroke="#CCAA44" stroke-opacity="0.2" stroke-width="1.5"/>
    <g transform="rotate(50)"><circle cx="0" cy="-100" r="2" fill="#CCAA44" opacity="0.3"/></g>
    <g transform="rotate(200)"><circle cx="0" cy="-100" r="2" fill="#CCAA44" opacity="0.2"/></g>

    <!-- Spokes to Ring 1 -->
    <line x1="0" y1="-10" x2="0" y2="-86" stroke="#CCAA44" stroke-opacity="0.08" stroke-width="1.5"/>
    <line x1="8" y1="6" x2="75" y2="43" stroke="#CCAA44" stroke-opacity="0.08" stroke-width="1.5"/>
    <line x1="-8" y1="6" x2="-75" y2="43" stroke="#CCAA44" stroke-opacity="0.08" stroke-width="1.5"/>

    <!-- SLOT 0: DOCK -->
    <g transform="rotate(0)">
      <rect x="-20" y="-148" width="10" height="50" fill="#1a2010" stroke="#CCAA44" stroke-opacity="0.25" stroke-width="0.8"/>
      <rect x="10" y="-148" width="10" height="50" fill="#1a2010" stroke="#CCAA44" stroke-opacity="0.25" stroke-width="0.8"/>
      <rect x="-10" y="-136" width="5" height="3" fill="#2a3420" stroke="#CCAA44" stroke-opacity="0.2" stroke-width="0.3"/>
      <rect x="5" y="-136" width="5" height="3" fill="#2a3420" stroke="#CCAA44" stroke-opacity="0.2" stroke-width="0.3"/>
      <rect x="-10" y="-110" width="5" height="3" fill="#2a3420" stroke="#CCAA44" stroke-opacity="0.2" stroke-width="0.3"/>
      <rect x="5" y="-110" width="5" height="3" fill="#2a3420" stroke="#CCAA44" stroke-opacity="0.2" stroke-width="0.3"/>
      <circle cx="-11" cy="-123" r="2" fill="#CCAA44" opacity="0.45"/>
      <circle cx="11" cy="-123" r="2" fill="#CCAA44" opacity="0.45"/>
      <rect x="-8" y="-146" width="16" height="46" fill="#080c06"/>
      <line x1="-11" y1="-150" x2="-11" y2="-165" stroke="#CCAA44" stroke-opacity="0.08" stroke-dasharray="3,3" stroke-width="0.4"/>
      <line x1="11" y1="-150" x2="11" y2="-165" stroke="#CCAA44" stroke-opacity="0.08" stroke-dasharray="3,3" stroke-width="0.4"/>
    </g>

    <!-- SLOT 1: SIGNAL RELAY -->
    <g transform="rotate(120)">
      <rect x="-2" y="-112" width="4" height="14" fill="#1a2a22" stroke="#88CCAA" stroke-opacity="0.12" stroke-width="0.4"/>
      <rect x="-10" y="-162" width="20" height="50" fill="#162820" stroke="#88CCAA" stroke-opacity="0.25" stroke-width="0.8"/>
      <circle cx="0" cy="-140" r="7" fill="#12201a" stroke="#88CCAA" stroke-opacity="0.18" stroke-width="0.4"/>
      <circle cx="0" cy="-140" r="1.5" fill="#88CCAA" opacity="0.5"/>
      <rect x="-1.5" y="-172" width="3" height="12" fill="#1e3028" stroke="#88CCAA" stroke-opacity="0.18" stroke-width="0.3"/>
      <circle cx="0" cy="-174" r="2" fill="#88CCAA" opacity="0.3"/>
      <path d="M -7,-178 A 9,9 0 0,1 7,-178" fill="none" stroke="#88CCAA" stroke-opacity="0.1" stroke-width="0.4"/>
    </g>

    <!-- SLOT 2: ORE SILO -->
    <g transform="rotate(240)">
      <rect x="-2" y="-112" width="4" height="14" fill="#1e2818" stroke="#CCAA44" stroke-opacity="0.12" stroke-width="0.4"/>
      <rect x="-12" y="-158" width="24" height="44" fill="#161e14" stroke="#CCAA44" stroke-opacity="0.22" stroke-width="0.8"/>
      <rect x="-6" y="-152" width="12" height="32" fill="#0e160c" stroke="#CCAA44" stroke-opacity="0.08" stroke-width="0.3"/>
      <rect x="-5" y="-140" width="10" height="20" fill="#CCAA44" opacity="0.04"/>
      <line x1="-12" y1="-136" x2="12" y2="-136" stroke="#CCAA44" stroke-opacity="0.08" stroke-width="0.3"/>
    </g>

    <!-- RING 2 BUS (r=190) -->
    <circle cx="0" cy="0" r="190" fill="none" stroke="#CCAA44" stroke-opacity="0.03" stroke-width="8"/>
    <circle cx="0" cy="0" r="190" fill="none" stroke="#CCAA44" stroke-opacity="0.15" stroke-width="1.2"/>
    <g transform="rotate(100)"><circle cx="0" cy="-190" r="2" fill="#CCAA44" opacity="0.2"/></g>
    <g transform="rotate(260)"><circle cx="0" cy="-190" r="1.5" fill="#CCAA44" opacity="0.18"/></g>

    <!-- Spokes Ring 1→2 -->
    <g transform="rotate(0)"><line x1="0" y1="-112" x2="0" y2="-178" stroke="#CCAA44" stroke-opacity="0.08" stroke-width="1.2"/></g>
    <g transform="rotate(90)"><line x1="0" y1="-112" x2="0" y2="-178" stroke="#CCAA44" stroke-opacity="0.08" stroke-width="1.2"/></g>
    <g transform="rotate(180)"><line x1="0" y1="-112" x2="0" y2="-178" stroke="#CCAA44" stroke-opacity="0.08" stroke-width="1.2"/></g>
    <g transform="rotate(270)"><line x1="0" y1="-112" x2="0" y2="-178" stroke="#CCAA44" stroke-opacity="0.08" stroke-width="1.2"/></g>

    <!-- R2 SLOT 0: FRAME PRESS -->
    <g transform="rotate(0)">
      <rect x="-2" y="-200" width="4" height="10" fill="#1e2410" stroke="#CCAA44" stroke-opacity="0.1" stroke-width="0.3"/>
      <rect x="-22" y="-248" width="44" height="46" fill="#1a2010" stroke="#CCAA44" stroke-opacity="0.22" stroke-width="0.8"/>
      <!-- Press mechanism -->
      <rect x="-16" y="-242" width="32" height="34" fill="#161c0e" stroke="#CCAA44" stroke-opacity="0.1" stroke-width="0.4"/>
      <rect x="-18" y="-242" width="4" height="34" fill="#222810" stroke="#CCAA44" stroke-opacity="0.08" stroke-width="0.3"/>
      <rect x="14" y="-242" width="4" height="34" fill="#222810" stroke="#CCAA44" stroke-opacity="0.08" stroke-width="0.3"/>
      <line x1="-10" y1="-225" x2="10" y2="-225" stroke="#CCAA44" stroke-opacity="0.3" stroke-width="0.5"/>
      <line x1="0" y1="-235" x2="0" y2="-215" stroke="#CCAA44" stroke-opacity="0.3" stroke-width="0.5"/>
    </g>

    <!-- R2 SLOT 1: LASER FAB -->
    <g transform="rotate(60)">
      <rect x="-2" y="-200" width="4" height="10" fill="#1e2410" stroke="#CCAA44" stroke-opacity="0.1" stroke-width="0.3"/>
      <!-- Octagonal housing -->
      <rect x="-20" y="-244" width="40" height="42" fill="#1a2018" stroke="#6688CC" stroke-opacity="0.22" stroke-width="0.8"/>
      <circle cx="0" cy="-223" r="12" fill="#14201a" stroke="#6688CC" stroke-opacity="0.15" stroke-width="0.4"/>
      <circle cx="0" cy="-223" r="5" fill="#6688CC" opacity="0.08"/>
      <circle cx="0" cy="-223" r="2" fill="#6688CC" opacity="0.2"/>
      <!-- Crosshairs -->
      <line x1="-12" y1="-223" x2="-5" y2="-223" stroke="#6688CC" stroke-opacity="0.2" stroke-width="0.4"/>
      <line x1="5" y1="-223" x2="12" y2="-223" stroke="#6688CC" stroke-opacity="0.2" stroke-width="0.4"/>
      <line x1="0" y1="-235" x2="0" y2="-228" stroke="#6688CC" stroke-opacity="0.2" stroke-width="0.4"/>
      <line x1="0" y1="-218" x2="0" y2="-211" stroke="#6688CC" stroke-opacity="0.2" stroke-width="0.4"/>
    </g>

    <!-- R2 SLOT 2: TRACTOR FAB -->
    <g transform="rotate(120)">
      <rect x="-2" y="-200" width="4" height="10" fill="#1e2410" stroke="#CCAA44" stroke-opacity="0.1" stroke-width="0.3"/>
      <rect x="-20" y="-244" width="40" height="42" fill="#1a1e20" stroke="#8866CC" stroke-opacity="0.22" stroke-width="0.8"/>
      <!-- Concentric emitter rings -->
      <circle cx="0" cy="-223" r="14" fill="#141820" stroke="#8866CC" stroke-opacity="0.12" stroke-width="0.4"/>
      <circle cx="0" cy="-223" r="8" fill="#1a1e28" stroke="#8866CC" stroke-opacity="0.15" stroke-width="0.3"/>
      <circle cx="0" cy="-223" r="3" fill="#8866CC" opacity="0.15"/>
      <!-- Spokes -->
      <line x1="-14" y1="-223" x2="-3" y2="-223" stroke="#8866CC" stroke-opacity="0.1" stroke-width="0.3"/>
      <line x1="3" y1="-223" x2="14" y2="-223" stroke="#8866CC" stroke-opacity="0.1" stroke-width="0.3"/>
      <line x1="0" y1="-237" x2="0" y2="-226" stroke="#8866CC" stroke-opacity="0.1" stroke-width="0.3"/>
      <line x1="0" y1="-220" x2="0" y2="-209" stroke="#8866CC" stroke-opacity="0.1" stroke-width="0.3"/>
    </g>

    <!-- R2 SLOT 3: SHIPYARD -->
    <g transform="rotate(180)">
      <rect x="-2" y="-200" width="4" height="10" fill="#1e2410" stroke="#CCAA44" stroke-opacity="0.1" stroke-width="0.3"/>
      <rect x="-24" y="-252" width="48" height="50" fill="#161a10" stroke="#CCAA44" stroke-opacity="0.2" stroke-width="0.8"/>
      <!-- Open scaffold frame -->
      <rect x="-18" y="-246" width="36" height="38" fill="none" stroke="#CCAA44" stroke-opacity="0.12" stroke-width="0.5"/>
      <!-- Cross bracing -->
      <line x1="-18" y1="-246" x2="18" y2="-208" stroke="#CCAA44" stroke-opacity="0.07" stroke-width="0.3"/>
      <line x1="18" y1="-246" x2="-18" y2="-208" stroke="#CCAA44" stroke-opacity="0.07" stroke-width="0.3"/>
      <!-- Crane pivot -->
      <circle cx="8" cy="-240" r="3" fill="#CCAA44" opacity="0.08"/>
      <line x1="8" y1="-240" x2="-4" y2="-220" stroke="#CCAA44" stroke-opacity="0.15" stroke-width="0.5"/>
    </g>

    <text x="0" y="280" text-anchor="middle" fill="#CCAA44" font-family="monospace" font-size="9" opacity="0.3">ingots → frames, lasers, tractors, scaffolds</text>
  </g>

  <!-- ============================================================ -->
  <!-- HELIOS WORKS — large, 3-ring, advanced smelting -->
  <!-- Ring 1: Dock, Relay, Furnace(Fe) -->
  <!-- Ring 2: OreSilo, Furnace_CU, Furnace_CR, LaserFab, TractorFab -->
  <!-- Ring 3: OreSilo, OreSilo, Furnace_CU, Furnace_CR, Shipyard -->
  <!-- ============================================================ -->
  <g transform="translate(2000, 480)">
    <circle cx="0" cy="0" r="420" fill="url(#sg)"/>

    <!-- Solar arrays (bigger station = more panels) -->
    <g transform="rotate(170)">
      <line x1="0" y1="-30" x2="0" y2="-80" stroke="#88CCAA" stroke-opacity="0.1" stroke-width="0.8"/>
      <rect x="-20" y="-78" width="40" height="38" fill="#111e16" stroke="#88CCAA" stroke-opacity="0.14" stroke-width="0.6"/>
      <line x1="0" y1="-78" x2="0" y2="-40" stroke="#88CCAA" stroke-opacity="0.04" stroke-width="0.3"/>
    </g>
    <g transform="rotate(60)">
      <line x1="0" y1="-30" x2="0" y2="-80" stroke="#88CCAA" stroke-opacity="0.1" stroke-width="0.8"/>
      <rect x="-16" y="-78" width="32" height="38" fill="#111e16" stroke="#88CCAA" stroke-opacity="0.12" stroke-width="0.6"/>
    </g>
    <g transform="rotate(290)">
      <line x1="0" y1="-30" x2="0" y2="-75" stroke="#88CCAA" stroke-opacity="0.08" stroke-width="0.8"/>
      <rect x="-14" y="-72" width="28" height="32" fill="#111e16" stroke="#88CCAA" stroke-opacity="0.12" stroke-width="0.5"/>
    </g>

    <!-- Core -->
    <circle cx="0" cy="0" r="10" fill="#141a20" stroke="#6688CC" stroke-opacity="0.22" stroke-width="0.8"/>
    <circle cx="0" cy="0" r="3" fill="#6688CC" opacity="0.35"/>

    <!-- RING 1 BUS -->
    <circle cx="0" cy="0" r="90" fill="none" stroke="#6688CC" stroke-opacity="0.04" stroke-width="7"/>
    <circle cx="0" cy="0" r="90" fill="none" stroke="#6688CC" stroke-opacity="0.2" stroke-width="1.2"/>
    <g transform="rotate(40)"><circle cx="0" cy="-90" r="1.5" fill="#6688CC" opacity="0.3"/></g>

    <!-- Spokes to R1 -->
    <line x1="0" y1="-10" x2="0" y2="-78" stroke="#6688CC" stroke-opacity="0.08" stroke-width="1.2"/>
    <line x1="8" y1="6" x2="68" y2="39" stroke="#6688CC" stroke-opacity="0.08" stroke-width="1.2"/>
    <line x1="-8" y1="6" x2="-68" y2="39" stroke="#6688CC" stroke-opacity="0.08" stroke-width="1.2"/>

    <!-- R1 SLOT 0: DOCK -->
    <g transform="rotate(0)">
      <rect x="-18" y="-134" width="8" height="44" fill="#141a20" stroke="#6688CC" stroke-opacity="0.25" stroke-width="0.7"/>
      <rect x="10" y="-134" width="8" height="44" fill="#141a20" stroke="#6688CC" stroke-opacity="0.25" stroke-width="0.7"/>
      <circle cx="-10" cy="-112" r="2" fill="#6688CC" opacity="0.45"/>
      <circle cx="10" cy="-112" r="2" fill="#6688CC" opacity="0.45"/>
      <rect x="-8" y="-132" width="16" height="40" fill="#060a0e"/>
      <rect x="-8" y="-122" width="4" height="3" fill="#2a3444" stroke="#6688CC" stroke-opacity="0.2" stroke-width="0.3"/>
      <rect x="4" y="-122" width="4" height="3" fill="#2a3444" stroke="#6688CC" stroke-opacity="0.2" stroke-width="0.3"/>
    </g>

    <!-- R1 SLOT 1: RELAY -->
    <g transform="rotate(120)">
      <rect x="-2" y="-100" width="4" height="12" fill="#1a2a22" stroke="#88CCAA" stroke-opacity="0.1" stroke-width="0.3"/>
      <rect x="-8" y="-148" width="16" height="48" fill="#162820" stroke="#88CCAA" stroke-opacity="0.22" stroke-width="0.7"/>
      <circle cx="0" cy="-128" r="6" fill="#12201a" stroke="#88CCAA" stroke-opacity="0.16" stroke-width="0.3"/>
      <circle cx="0" cy="-128" r="1.5" fill="#88CCAA" opacity="0.45"/>
      <rect x="-1" y="-156" width="2" height="10" fill="#1e3028" stroke="#88CCAA" stroke-opacity="0.15" stroke-width="0.2"/>
      <circle cx="0" cy="-158" r="1.5" fill="#88CCAA" opacity="0.3"/>
    </g>

    <!-- R1 SLOT 2: FURNACE (Ferrite) -->
    <g transform="rotate(240)">
      <rect x="-2.5" y="-100" width="5" height="12" fill="#222a1a" stroke="#B8CC72" stroke-opacity="0.15" stroke-width="0.3"/>
      <rect x="-20" y="-148" width="40" height="48" fill="#1a2016" stroke="#B8CC72" stroke-opacity="0.25" stroke-width="0.8"/>
      <rect x="-10" y="-140" width="20" height="26" fill="#141808"/>
      <circle cx="0" cy="-127" r="8" fill="#B8CC72" opacity="0.04"/>
      <circle cx="0" cy="-127" r="4" fill="#CCAA44" opacity="0.08"/>
      <circle cx="0" cy="-127" r="2" fill="#FFCC66" opacity="0.2"/>
      <line x1="-8" y1="-134" x2="8" y2="-134" stroke="#B8CC72" stroke-opacity="0.15" stroke-width="0.4"/>
      <line x1="-8" y1="-127" x2="8" y2="-127" stroke="#B8CC72" stroke-opacity="0.12" stroke-width="0.4"/>
      <line x1="-8" y1="-120" x2="8" y2="-120" stroke="#B8CC72" stroke-opacity="0.15" stroke-width="0.4"/>
      <g stroke="#B8CC72" stroke-opacity="0.1" stroke-width="0.6">
        <line x1="-12" y1="-148" x2="-12" y2="-155"/>
        <line x1="-4" y1="-148" x2="-4" y2="-156"/>
        <line x1="4" y1="-148" x2="4" y2="-156"/>
        <line x1="12" y1="-148" x2="12" y2="-155"/>
      </g>
    </g>

    <!-- RING 2 BUS (r=170) -->
    <circle cx="0" cy="0" r="170" fill="none" stroke="#6688CC" stroke-opacity="0.03" stroke-width="7"/>
    <circle cx="0" cy="0" r="170" fill="none" stroke="#6688CC" stroke-opacity="0.12" stroke-width="1.2"/>
    <g transform="rotate(80)"><circle cx="0" cy="-170" r="1.5" fill="#6688CC" opacity="0.2"/></g>
    <g transform="rotate(220)"><circle cx="0" cy="-170" r="1.5" fill="#CCAA44" opacity="0.18"/></g>

    <!-- Spokes R1→R2 (4 evenly spaced) -->
    <g transform="rotate(30)"><line x1="0" y1="-100" x2="0" y2="-160" stroke="#6688CC" stroke-opacity="0.06" stroke-width="1"/></g>
    <g transform="rotate(102)"><line x1="0" y1="-100" x2="0" y2="-160" stroke="#6688CC" stroke-opacity="0.06" stroke-width="1"/></g>
    <g transform="rotate(174)"><line x1="0" y1="-100" x2="0" y2="-160" stroke="#6688CC" stroke-opacity="0.06" stroke-width="1"/></g>
    <g transform="rotate(246)"><line x1="0" y1="-100" x2="0" y2="-160" stroke="#6688CC" stroke-opacity="0.06" stroke-width="1"/></g>
    <g transform="rotate(318)"><line x1="0" y1="-100" x2="0" y2="-160" stroke="#6688CC" stroke-opacity="0.06" stroke-width="1"/></g>

    <!-- R2: OreSilo, Furnace_CU, Furnace_CR, LaserFab, TractorFab -->
    <!-- R2 SLOT 0: Ore Silo (0deg) -->
    <g transform="rotate(0)">
      <rect x="-2" y="-180" width="4" height="8" fill="#1e2818" stroke="#6688CC" stroke-opacity="0.08" stroke-width="0.3"/>
      <rect x="-10" y="-218" width="20" height="36" fill="#161e14" stroke="#B8CC72" stroke-opacity="0.18" stroke-width="0.6"/>
      <rect x="-5" y="-212" width="10" height="24" fill="#0e160c"/>
      <rect x="-4" y="-200" width="8" height="12" fill="#B8CC72" opacity="0.04"/>
    </g>

    <!-- R2 SLOT 1: Furnace CU (72deg) -->
    <g transform="rotate(72)">
      <rect x="-2" y="-180" width="4" height="8" fill="#1a2030" stroke="#6688CC" stroke-opacity="0.08" stroke-width="0.3"/>
      <rect x="-16" y="-224" width="32" height="42" fill="#141828" stroke="#4466AA" stroke-opacity="0.22" stroke-width="0.8"/>
      <rect x="-8" y="-216" width="16" height="22" fill="#101420"/>
      <circle cx="0" cy="-205" r="6" fill="#4466AA" opacity="0.04"/>
      <circle cx="0" cy="-205" r="3" fill="#6688CC" opacity="0.08"/>
      <circle cx="0" cy="-205" r="1.5" fill="#88AAEE" opacity="0.2"/>
      <line x1="-6" y1="-210" x2="6" y2="-210" stroke="#4466AA" stroke-opacity="0.15" stroke-width="0.3"/>
      <line x1="-6" y1="-200" x2="6" y2="-200" stroke="#4466AA" stroke-opacity="0.15" stroke-width="0.3"/>
      <g stroke="#4466AA" stroke-opacity="0.08" stroke-width="0.5">
        <line x1="-8" y1="-224" x2="-8" y2="-230"/>
        <line x1="0" y1="-224" x2="0" y2="-231"/>
        <line x1="8" y1="-224" x2="8" y2="-230"/>
      </g>
    </g>

    <!-- R2 SLOT 2: Furnace CR (144deg) -->
    <g transform="rotate(144)">
      <rect x="-2" y="-180" width="4" height="8" fill="#1a1830" stroke="#6688CC" stroke-opacity="0.08" stroke-width="0.3"/>
      <rect x="-16" y="-224" width="32" height="42" fill="#1a1430" stroke="#7755BB" stroke-opacity="0.22" stroke-width="0.8"/>
      <rect x="-8" y="-216" width="16" height="22" fill="#121020"/>
      <circle cx="0" cy="-205" r="6" fill="#7755BB" opacity="0.04"/>
      <circle cx="0" cy="-205" r="3" fill="#9977DD" opacity="0.08"/>
      <circle cx="0" cy="-205" r="1.5" fill="#BB99FF" opacity="0.2"/>
      <line x1="-6" y1="-210" x2="6" y2="-210" stroke="#7755BB" stroke-opacity="0.15" stroke-width="0.3"/>
      <line x1="-6" y1="-200" x2="6" y2="-200" stroke="#7755BB" stroke-opacity="0.15" stroke-width="0.3"/>
      <g stroke="#7755BB" stroke-opacity="0.08" stroke-width="0.5">
        <line x1="-8" y1="-224" x2="-8" y2="-230"/>
        <line x1="0" y1="-224" x2="0" y2="-231"/>
        <line x1="8" y1="-224" x2="8" y2="-230"/>
      </g>
    </g>

    <!-- R2 SLOT 3: Laser Fab (216deg) -->
    <g transform="rotate(216)">
      <rect x="-2" y="-180" width="4" height="8" fill="#1a2030" stroke="#6688CC" stroke-opacity="0.08" stroke-width="0.3"/>
      <rect x="-14" y="-220" width="28" height="38" fill="#141a28" stroke="#6688CC" stroke-opacity="0.18" stroke-width="0.6"/>
      <circle cx="0" cy="-201" r="8" fill="#101820" stroke="#6688CC" stroke-opacity="0.12" stroke-width="0.3"/>
      <circle cx="0" cy="-201" r="2" fill="#6688CC" opacity="0.15"/>
      <line x1="-8" y1="-201" x2="-3" y2="-201" stroke="#6688CC" stroke-opacity="0.15" stroke-width="0.3"/>
      <line x1="3" y1="-201" x2="8" y2="-201" stroke="#6688CC" stroke-opacity="0.15" stroke-width="0.3"/>
    </g>

    <!-- R2 SLOT 4: Tractor Fab (288deg) -->
    <g transform="rotate(288)">
      <rect x="-2" y="-180" width="4" height="8" fill="#1a1830" stroke="#6688CC" stroke-opacity="0.08" stroke-width="0.3"/>
      <rect x="-14" y="-220" width="28" height="38" fill="#181420" stroke="#8866CC" stroke-opacity="0.18" stroke-width="0.6"/>
      <circle cx="0" cy="-201" r="9" fill="#141020" stroke="#8866CC" stroke-opacity="0.1" stroke-width="0.3"/>
      <circle cx="0" cy="-201" r="5" fill="#1a1428" stroke="#8866CC" stroke-opacity="0.12" stroke-width="0.3"/>
      <circle cx="0" cy="-201" r="2" fill="#8866CC" opacity="0.12"/>
    </g>

    <!-- RING 3 BUS (r=260) -->
    <circle cx="0" cy="0" r="260" fill="none" stroke="#6688CC" stroke-opacity="0.02" stroke-width="6"/>
    <circle cx="0" cy="0" r="260" fill="none" stroke="#6688CC" stroke-opacity="0.08" stroke-width="1"/>
    <g transform="rotate(150)"><circle cx="0" cy="-260" r="1.5" fill="#6688CC" opacity="0.15"/></g>

    <!-- Spokes R2→R3 -->
    <g transform="rotate(20)"><line x1="0" y1="-180" x2="0" y2="-250" stroke="#6688CC" stroke-opacity="0.04" stroke-width="0.8"/></g>
    <g transform="rotate(92)"><line x1="0" y1="-180" x2="0" y2="-250" stroke="#6688CC" stroke-opacity="0.04" stroke-width="0.8"/></g>
    <g transform="rotate(164)"><line x1="0" y1="-180" x2="0" y2="-250" stroke="#6688CC" stroke-opacity="0.04" stroke-width="0.8"/></g>
    <g transform="rotate(236)"><line x1="0" y1="-180" x2="0" y2="-250" stroke="#6688CC" stroke-opacity="0.04" stroke-width="0.8"/></g>
    <g transform="rotate(308)"><line x1="0" y1="-180" x2="0" y2="-250" stroke="#6688CC" stroke-opacity="0.04" stroke-width="0.8"/></g>

    <!-- R3: OreSilo x2, Furnace_CU, Furnace_CR, Shipyard -->
    <!-- R3 SLOT 0: Ore Silo -->
    <g transform="rotate(0)">
      <rect x="-2" y="-270" width="4" height="8" fill="#1e2818" stroke="#6688CC" stroke-opacity="0.06" stroke-width="0.2"/>
      <rect x="-8" y="-300" width="16" height="28" fill="#141a10" stroke="#B8CC72" stroke-opacity="0.14" stroke-width="0.5"/>
      <rect x="-4" y="-296" width="8" height="20" fill="#0c1208"/>
    </g>
    <!-- R3 SLOT 1: Ore Silo -->
    <g transform="rotate(40)">
      <rect x="-2" y="-270" width="4" height="8" fill="#1e2818" stroke="#6688CC" stroke-opacity="0.06" stroke-width="0.2"/>
      <rect x="-8" y="-300" width="16" height="28" fill="#141a10" stroke="#B8CC72" stroke-opacity="0.14" stroke-width="0.5"/>
      <rect x="-4" y="-296" width="8" height="20" fill="#0c1208"/>
    </g>
    <!-- R3 SLOT 2: Furnace CU -->
    <g transform="rotate(80)">
      <rect x="-2" y="-270" width="4" height="8" fill="#141828" stroke="#6688CC" stroke-opacity="0.06" stroke-width="0.2"/>
      <rect x="-12" y="-304" width="24" height="32" fill="#141828" stroke="#4466AA" stroke-opacity="0.16" stroke-width="0.6"/>
      <rect x="-6" y="-298" width="12" height="16" fill="#101420"/>
      <circle cx="0" cy="-290" r="4" fill="#4466AA" opacity="0.04"/>
      <circle cx="0" cy="-290" r="2" fill="#6688CC" opacity="0.08"/>
      <g stroke="#4466AA" stroke-opacity="0.06" stroke-width="0.4">
        <line x1="-6" y1="-304" x2="-6" y2="-310"/>
        <line x1="0" y1="-304" x2="0" y2="-311"/>
        <line x1="6" y1="-304" x2="6" y2="-310"/>
      </g>
    </g>
    <!-- R3 SLOT 3: Furnace CR -->
    <g transform="rotate(120)">
      <rect x="-2" y="-270" width="4" height="8" fill="#1a1430" stroke="#6688CC" stroke-opacity="0.06" stroke-width="0.2"/>
      <rect x="-12" y="-304" width="24" height="32" fill="#1a1430" stroke="#7755BB" stroke-opacity="0.16" stroke-width="0.6"/>
      <rect x="-6" y="-298" width="12" height="16" fill="#121020"/>
      <circle cx="0" cy="-290" r="4" fill="#7755BB" opacity="0.04"/>
      <circle cx="0" cy="-290" r="2" fill="#9977DD" opacity="0.08"/>
      <g stroke="#7755BB" stroke-opacity="0.06" stroke-width="0.4">
        <line x1="-6" y1="-304" x2="-6" y2="-310"/>
        <line x1="0" y1="-304" x2="0" y2="-311"/>
        <line x1="6" y1="-304" x2="6" y2="-310"/>
      </g>
    </g>
    <!-- R3 SLOT 4: Shipyard -->
    <g transform="rotate(160)">
      <rect x="-2" y="-270" width="4" height="8" fill="#1e2410" stroke="#6688CC" stroke-opacity="0.06" stroke-width="0.2"/>
      <rect x="-16" y="-308" width="32" height="36" fill="#161a10" stroke="#CCAA44" stroke-opacity="0.16" stroke-width="0.6"/>
      <rect x="-10" y="-302" width="20" height="24" fill="none" stroke="#CCAA44" stroke-opacity="0.08" stroke-width="0.4"/>
      <line x1="-10" y1="-302" x2="10" y2="-278" stroke="#CCAA44" stroke-opacity="0.05" stroke-width="0.3"/>
      <line x1="10" y1="-302" x2="-10" y2="-278" stroke="#CCAA44" stroke-opacity="0.05" stroke-width="0.3"/>
    </g>

    <text x="0" y="310" text-anchor="middle" fill="#6688CC" font-family="monospace" font-size="9" opacity="0.3">full pipeline: ore → Cu/Cr ingots → lasers, tractors</text>
  </g>

</svg>