<svg xmlns="http://www.w3.org/2000/svg" viewBox="0 0 1200 1200" width="1200" height="1200">
  <title>Station as Industrial Machine — Cohesive Ring</title>
  <desc>2D flatland station. Everything is on the plane. Modules fill their ring arc segments. Corridors are structural plating. Solar arrays extend starward (toward center). You can read the industrial flow: ore in → smelt → product out.</desc>

  <defs>
    <radialGradient id="starlight" cx="50%" cy="50%" r="50%">
      <stop offset="0%" stop-color="#FFE8B0" stop-opacity="0.08"/>
      <stop offset="30%" stop-color="#886644" stop-opacity="0.03"/>
      <stop offset="100%" stop-color="#0a0808" stop-opacity="0"/>
    </radialGradient>
  </defs>

  <rect width="1200" height="1200" fill="#0a0808"/>
  <circle cx="600" cy="600" r="580" fill="url(#starlight)"/>

  <text x="600" y="30" text-anchor="middle" fill="#88CCAA" font-family="monospace" font-size="14" opacity="0.8">STATION AS INDUSTRIAL MACHINE</text>
  <text x="600" y="50" text-anchor="middle" fill="#667766" font-family="monospace" font-size="11">Modules fill arc segments. Corridors are structure. Solar extends starward. Flow is readable.</text>
  <text x="600" y="68" text-anchor="middle" fill="#555544" font-family="monospace" font-size="10">star is at center (where you are)</text>

  <g transform="translate(600, 600)">

    <!-- ============================================ -->
    <!-- STAR DIRECTION INDICATOR -->
    <!-- ============================================ -->
    <circle cx="0" cy="0" r="8" fill="#FFE8B0" opacity="0.15"/>
    <circle cx="0" cy="0" r="3" fill="#FFE8B0" opacity="0.3"/>
    <text x="0" y="-14" text-anchor="middle" fill="#FFE8B0" font-family="monospace" font-size="8" opacity="0.3">STAR</text>

    <!-- ============================================ -->
    <!-- SOLAR ARRAYS — extend from ring INWARD toward star -->
    <!-- These are the power source. Flat rectangular panels. -->
    <!-- They connect to the inner edge of Ring 1. -->
    <!-- ============================================ -->

    <!-- Solar array 1 (from signal relay, ~345 deg inward) -->
    <g>
      <rect x="-16" y="-220" width="32" height="100" fill="#14221a" stroke="#88CCAA" stroke-opacity="0.2" stroke-width="0.8"/>
      <!-- Panel segments -->
      <line x1="-16" y1="-195" x2="16" y2="-195" stroke="#88CCAA" stroke-opacity="0.1" stroke-width="0.4"/>
      <line x1="-16" y1="-170" x2="16" y2="-170" stroke="#88CCAA" stroke-opacity="0.1" stroke-width="0.4"/>
      <line x1="-16" y1="-145" x2="16" y2="-145" stroke="#88CCAA" stroke-opacity="0.1" stroke-width="0.4"/>
      <line x1="0" y1="-220" x2="0" y2="-120" stroke="#88CCAA" stroke-opacity="0.07" stroke-width="0.4"/>
      <!-- Mounting strut -->
      <rect x="-3" y="-122" width="6" height="8" fill="#1a2a22" stroke="#88CCAA" stroke-opacity="0.15" stroke-width="0.4"/>
    </g>

    <!-- Solar array 2 (from dock area, ~80 deg inward) -->
    <g transform="rotate(75)">
      <rect x="-14" y="-200" width="28" height="80" fill="#14221a" stroke="#88CCAA" stroke-opacity="0.18" stroke-width="0.8"/>
      <line x1="-14" y1="-180" x2="14" y2="-180" stroke="#88CCAA" stroke-opacity="0.08" stroke-width="0.4"/>
      <line x1="-14" y1="-160" x2="14" y2="-160" stroke="#88CCAA" stroke-opacity="0.08" stroke-width="0.4"/>
      <line x1="-14" y1="-140" x2="14" y2="-140" stroke="#88CCAA" stroke-opacity="0.08" stroke-width="0.4"/>
      <line x1="0" y1="-200" x2="0" y2="-120" stroke="#88CCAA" stroke-opacity="0.06" stroke-width="0.4"/>
      <rect x="-3" y="-122" width="6" height="8" fill="#1a2a22" stroke="#88CCAA" stroke-opacity="0.12" stroke-width="0.4"/>
    </g>

    <!-- Solar array 3 (from furnace area, ~200 deg inward) -->
    <g transform="rotate(195)">
      <rect x="-18" y="-210" width="36" height="90" fill="#14221a" stroke="#88CCAA" stroke-opacity="0.18" stroke-width="0.8"/>
      <line x1="-18" y1="-188" x2="18" y2="-188" stroke="#88CCAA" stroke-opacity="0.08" stroke-width="0.4"/>
      <line x1="-18" y1="-165" x2="18" y2="-165" stroke="#88CCAA" stroke-opacity="0.08" stroke-width="0.4"/>
      <line x1="-18" y1="-142" x2="18" y2="-142" stroke="#88CCAA" stroke-opacity="0.08" stroke-width="0.4"/>
      <line x1="0" y1="-210" x2="0" y2="-120" stroke="#88CCAA" stroke-opacity="0.06" stroke-width="0.4"/>
      <line x1="-9" y1="-210" x2="-9" y2="-120" stroke="#88CCAA" stroke-opacity="0.04" stroke-width="0.4"/>
      <line x1="9" y1="-210" x2="9" y2="-120" stroke="#88CCAA" stroke-opacity="0.04" stroke-width="0.4"/>
      <rect x="-3" y="-122" width="6" height="8" fill="#1a2a22" stroke="#88CCAA" stroke-opacity="0.12" stroke-width="0.4"/>
    </g>

    <!-- ============================================ -->
    <!-- RING 1 — STRUCTURAL PLATING (the main ring body) -->
    <!-- This is the "hull" — continuous plated ring, not faint arcs -->
    <!-- ============================================ -->

    <!-- Outer ring edge -->
    <circle cx="0" cy="0" r="150" fill="none" stroke="#283830" stroke-width="1.5"/>
    <!-- Inner ring edge -->
    <circle cx="0" cy="0" r="112" fill="none" stroke="#283830" stroke-width="1.2"/>

    <!-- Ring plating (filled arc segments between modules) -->
    <!-- Segment 1: Signal Relay → Ore Buyer (350deg to 45deg) -->
    <path d="M 148,-26 A 150,150 0 0,1 106,106
             L 79,79 A 112,112 0 0,0 110,-20 Z"
          fill="#141e18" stroke="#1e3028" stroke-width="0.8"/>
    <!-- Plating panel lines -->
    <path d="M 140,20 A 142,142 0 0,1 120,80" fill="none" stroke="#88CCAA" stroke-opacity="0.05" stroke-width="0.4"/>
    <path d="M 130,20 A 132,132 0 0,1 108,78" fill="none" stroke="#88CCAA" stroke-opacity="0.04" stroke-width="0.4"/>

    <!-- Segment 2: Ore Buyer → Furnace (45deg to 135deg) -->
    <path d="M 106,106 A 150,150 0 0,1 -106,106
             L -79,79 A 112,112 0 0,0 79,79 Z"
          fill="#161e16" stroke="#1e3028" stroke-width="0.8"/>
    <path d="M 80,100 A 132,132 0 0,1 -80,100" fill="none" stroke="#88CCAA" stroke-opacity="0.04" stroke-width="0.4"/>

    <!-- Segment 3: Furnace → Repair Bay (135deg to 210deg) -->
    <path d="M -106,106 A 150,150 0 0,1 -130,-75
             L -97,-56 A 112,112 0 0,0 -79,79 Z"
          fill="#141e18" stroke="#1e3028" stroke-width="0.8"/>

    <!-- Segment 4: Repair Bay → Dock (210deg to 280deg) -->
    <path d="M -130,-75 A 150,150 0 0,1 -26,-148
             L -19,-110 A 112,112 0 0,0 -97,-56 Z"
          fill="#161e18" stroke="#1e3028" stroke-width="0.8"/>

    <!-- Segment 5: Dock → Signal Relay (280deg to 350deg) -->
    <path d="M -26,-148 A 150,150 0 0,1 148,-26
             L 110,-20 A 112,112 0 0,0 -19,-110 Z"
          fill="#141e18" stroke="#1e3028" stroke-width="0.8"/>

    <!-- Ring surface detail — rivet lines along both edges -->
    <circle cx="0" cy="0" r="147" fill="none" stroke="#88CCAA" stroke-opacity="0.06" stroke-width="0.3"/>
    <circle cx="0" cy="0" r="115" fill="none" stroke="#88CCAA" stroke-opacity="0.06" stroke-width="0.3"/>

    <!-- ============================================ -->
    <!-- MODULE: SIGNAL RELAY — 350deg (top, slightly right) -->
    <!-- Flat emitter dish built into the ring segment -->
    <!-- ============================================ -->
    <g transform="rotate(-5)">
      <!-- Module housing (widened ring section) -->
      <path d="M -30,-155 L 30,-155 L 30,-107 L -30,-107 Z"
            fill="#162820" stroke="#88CCAA" stroke-opacity="0.3" stroke-width="1"/>
      <!-- Inner ring attachment flanges -->
      <rect x="-32" y="-155" width="4" height="48" fill="#1e3228" stroke="#88CCAA" stroke-opacity="0.2" stroke-width="0.4"/>
      <rect x="28" y="-155" width="4" height="48" fill="#1e3228" stroke="#88CCAA" stroke-opacity="0.2" stroke-width="0.4"/>
      <!-- Emitter dish (flat, in-plane — a panel with concentric rings) -->
      <circle cx="0" cy="-131" r="18" fill="#12201a" stroke="#88CCAA" stroke-opacity="0.25" stroke-width="0.6"/>
      <circle cx="0" cy="-131" r="12" fill="#162820" stroke="#88CCAA" stroke-opacity="0.18" stroke-width="0.4"/>
      <circle cx="0" cy="-131" r="6" fill="#1a3028" stroke="#88CCAA" stroke-opacity="0.2" stroke-width="0.4"/>
      <circle cx="0" cy="-131" r="2.5" fill="#88CCAA" opacity="0.6"/>
      <!-- Feed horn crosshairs -->
      <line x1="-18" y1="-131" x2="-6" y2="-131" stroke="#88CCAA" stroke-opacity="0.15" stroke-width="0.4"/>
      <line x1="6" y1="-131" x2="18" y2="-131" stroke="#88CCAA" stroke-opacity="0.15" stroke-width="0.4"/>
      <line x1="0" y1="-149" x2="0" y2="-137" stroke="#88CCAA" stroke-opacity="0.15" stroke-width="0.4"/>
      <line x1="0" y1="-125" x2="0" y2="-113" stroke="#88CCAA" stroke-opacity="0.15" stroke-width="0.4"/>
      <!-- Broadcast signal arcs (in-plane, radiating outward from station) -->
      <path d="M -14,-160 A 18,18 0 0,1 14,-160" fill="none" stroke="#88CCAA" stroke-opacity="0.15" stroke-width="0.6"/>
      <path d="M -22,-168 A 28,28 0 0,1 22,-168" fill="none" stroke="#88CCAA" stroke-opacity="0.1" stroke-width="0.5"/>
      <path d="M -32,-178 A 40,40 0 0,1 32,-178" fill="none" stroke="#88CCAA" stroke-opacity="0.06" stroke-width="0.4"/>
    </g>

    <!-- ============================================ -->
    <!-- MODULE: ORE BUYER (HOPPER) — 45deg -->
    <!-- Wide mouth facing outward to catch deliveries -->
    <!-- ============================================ -->
    <g transform="rotate(45)">
      <!-- Module housing -->
      <path d="M -28,-160 L 28,-160 L 28,-105 L -28,-105 Z"
            fill="#1a2418" stroke="#B8CC72" stroke-opacity="0.28" stroke-width="1"/>
      <!-- Flanges -->
      <rect x="-30" y="-160" width="4" height="55" fill="#222c1e" stroke="#B8CC72" stroke-opacity="0.18" stroke-width="0.4"/>
      <rect x="26" y="-160" width="4" height="55" fill="#222c1e" stroke="#B8CC72" stroke-opacity="0.18" stroke-width="0.4"/>
      <!-- Hopper mouth (wide opening facing outward/away from star) -->
      <polygon points="-24,-160 24,-160 16,-140 -16,-140"
               fill="#0a0e08" stroke="#B8CC72" stroke-opacity="0.2" stroke-width="0.5"/>
      <!-- Hopper rim -->
      <line x1="-24" y1="-160" x2="24" y2="-160" stroke="#B8CC72" stroke-opacity="0.4" stroke-width="1.2"/>
      <!-- Funnel walls -->
      <line x1="-24" y1="-160" x2="-16" y2="-140" stroke="#B8CC72" stroke-opacity="0.25" stroke-width="0.6"/>
      <line x1="24" y1="-160" x2="16" y2="-140" stroke="#B8CC72" stroke-opacity="0.25" stroke-width="0.6"/>
      <!-- Chute feeding inward (toward furnace, clockwise) -->
      <rect x="-8" y="-140" width="16" height="30" fill="#0e140c" stroke="#B8CC72" stroke-opacity="0.15" stroke-width="0.4"/>
      <!-- Flow direction arrows -->
      <line x1="0" y1="-136" x2="0" y2="-116" stroke="#B8CC72" stroke-opacity="0.2" stroke-width="0.5"/>
      <line x1="-4" y1="-120" x2="0" y2="-114" stroke="#B8CC72" stroke-opacity="0.2" stroke-width="0.4"/>
      <line x1="4" y1="-120" x2="0" y2="-114" stroke="#B8CC72" stroke-opacity="0.2" stroke-width="0.4"/>
    </g>

    <!-- ============================================ -->
    <!-- FLOW ARROW: Ore Buyer → Furnace (through corridor) -->
    <!-- ============================================ -->
    <g>
      <!-- Small flow indicators in the corridor plating -->
      <circle cx="55" cy="118" r="2" fill="#B8CC72" opacity="0.12"/>
      <circle cx="30" cy="125" r="2" fill="#B8CC72" opacity="0.1"/>
      <circle cx="5" cy="128" r="2" fill="#B8CC72" opacity="0.08"/>
    </g>

    <!-- ============================================ -->
    <!-- MODULE: FURNACE — 135deg -->
    <!-- The smelter. Ore enters from hopper side, -->
    <!-- ingots exit toward cargo/press side. -->
    <!-- Visible: firebox, intake, output chute -->
    <!-- ============================================ -->
    <g transform="rotate(135)">
      <!-- Module housing (wider than others — heavy industry) -->
      <path d="M -34,-162 L 34,-162 L 34,-100 L -34,-100 Z"
            fill="#1a2016" stroke="#B8CC72" stroke-opacity="0.3" stroke-width="1.2"/>
      <!-- Heavy flanges -->
      <rect x="-36" y="-162" width="5" height="62" fill="#242e1c" stroke="#B8CC72" stroke-opacity="0.2" stroke-width="0.5"/>
      <rect x="31" y="-162" width="5" height="62" fill="#242e1c" stroke="#B8CC72" stroke-opacity="0.2" stroke-width="0.5"/>

      <!-- ORE INTAKE (from hopper direction — right side) -->
      <rect x="20" y="-145" width="12" height="14" fill="#0e1208" stroke="#B8CC72" stroke-opacity="0.15" stroke-width="0.4"/>
      <text x="26" y="-135" text-anchor="middle" fill="#B8CC72" font-family="monospace" font-size="5" opacity="0.2">IN</text>

      <!-- FIREBOX (center — the hot part) -->
      <rect x="-16" y="-150" width="32" height="32" fill="#141808" stroke="#B8CC72" stroke-opacity="0.2" stroke-width="0.6"/>
      <!-- Fire glow (concentric) -->
      <circle cx="0" cy="-134" r="14" fill="#B8CC72" opacity="0.04"/>
      <circle cx="0" cy="-134" r="10" fill="#998822" opacity="0.06"/>
      <circle cx="0" cy="-134" r="6" fill="#CCAA44" opacity="0.1"/>
      <circle cx="0" cy="-134" r="3" fill="#FFCC66" opacity="0.2"/>
      <!-- Grate bars across firebox -->
      <line x1="-14" y1="-142" x2="14" y2="-142" stroke="#B8CC72" stroke-opacity="0.2" stroke-width="0.6"/>
      <line x1="-14" y1="-134" x2="14" y2="-134" stroke="#B8CC72" stroke-opacity="0.15" stroke-width="0.6"/>
      <line x1="-14" y1="-126" x2="14" y2="-126" stroke="#B8CC72" stroke-opacity="0.2" stroke-width="0.6"/>

      <!-- INGOT OUTPUT (left side — toward cargo bay) -->
      <rect x="-32" y="-145" width="12" height="14" fill="#161e10" stroke="#B8CC72" stroke-opacity="0.15" stroke-width="0.4"/>
      <text x="-26" y="-135" text-anchor="middle" fill="#B8CC72" font-family="monospace" font-size="5" opacity="0.2">OUT</text>

      <!-- Heat exchanger fins (below firebox, inner edge) -->
      <g stroke="#B8CC72" stroke-opacity="0.12" stroke-width="0.6">
        <line x1="-20" y1="-112" x2="-20" y2="-102"/>
        <line x1="-14" y1="-112" x2="-14" y2="-102"/>
        <line x1="-8" y1="-112" x2="-8" y2="-102"/>
        <line x1="-2" y1="-112" x2="-2" y2="-102"/>
        <line x1="4" y1="-112" x2="4" y2="-102"/>
        <line x1="10" y1="-112" x2="10" y2="-102"/>
        <line x1="16" y1="-112" x2="16" y2="-102"/>
        <line x1="22" y1="-112" x2="22" y2="-102"/>
      </g>
    </g>

    <!-- ============================================ -->
    <!-- MODULE: REPAIR BAY — 210deg -->
    <!-- Open work bay with mechanical arm -->
    <!-- ============================================ -->
    <g transform="rotate(210)">
      <path d="M -28,-155 L 28,-155 L 28,-107 L -28,-107 Z"
            fill="#141a1a" stroke="#88AAAA" stroke-opacity="0.28" stroke-width="1"/>
      <rect x="-30" y="-155" width="4" height="48" fill="#1a2222" stroke="#88AAAA" stroke-opacity="0.18" stroke-width="0.4"/>
      <rect x="26" y="-155" width="4" height="48" fill="#1a2222" stroke="#88AAAA" stroke-opacity="0.18" stroke-width="0.4"/>
      <!-- Open work area -->
      <rect x="-20" y="-148" width="40" height="34" fill="#0c1212" stroke="#88AAAA" stroke-opacity="0.1" stroke-width="0.4"/>
      <!-- Articulated arm (top-down: segments + joints) -->
      <!-- Base pivot -->
      <circle cx="-10" cy="-140" r="4" fill="#1a2424" stroke="#88AAAA" stroke-opacity="0.25" stroke-width="0.5"/>
      <circle cx="-10" cy="-140" r="1.5" fill="#88AAAA" opacity="0.3"/>
      <!-- Arm segment 1 -->
      <line x1="-10" y1="-140" x2="4" y2="-136" stroke="#88AAAA" stroke-opacity="0.35" stroke-width="1.5"/>
      <!-- Joint -->
      <circle cx="4" cy="-136" r="2.5" fill="#1a2424" stroke="#88AAAA" stroke-opacity="0.2" stroke-width="0.4"/>
      <!-- Arm segment 2 -->
      <line x1="4" y1="-136" x2="12" y2="-126" stroke="#88AAAA" stroke-opacity="0.3" stroke-width="1.2"/>
      <!-- Tool head -->
      <circle cx="12" cy="-126" r="3" fill="#88AAAA" opacity="0.2"/>
      <!-- Tool reach arc -->
      <circle cx="-10" cy="-140" r="22" fill="none" stroke="#88AAAA" stroke-opacity="0.06" stroke-width="0.3" stroke-dasharray="2,3"/>
    </g>

    <!-- ============================================ -->
    <!-- MODULE: DOCK — 280deg -->
    <!-- Gap in the ring. Clamp arms extend inward & outward. -->
    <!-- Guide lights. This is where ships enter. -->
    <!-- ============================================ -->
    <g transform="rotate(280)">
      <!-- Dock is a GAP in the ring, not a filled segment -->
      <!-- Left wall -->
      <rect x="-30" y="-158" width="12" height="54" fill="#162420" stroke="#88CCAA" stroke-opacity="0.3" stroke-width="1"/>
      <!-- Right wall -->
      <rect x="18" y="-158" width="12" height="54" fill="#162420" stroke="#88CCAA" stroke-opacity="0.3" stroke-width="1"/>

      <!-- Clamp arms extending inward from walls -->
      <!-- Left clamp -->
      <rect x="-18" y="-150" width="10" height="6" fill="#2a3a32" stroke="#88CCAA" stroke-opacity="0.25" stroke-width="0.5"/>
      <rect x="-18" y="-120" width="10" height="6" fill="#2a3a32" stroke="#88CCAA" stroke-opacity="0.25" stroke-width="0.5"/>
      <!-- Right clamp -->
      <rect x="8" y="-150" width="10" height="6" fill="#2a3a32" stroke="#88CCAA" stroke-opacity="0.25" stroke-width="0.5"/>
      <rect x="8" y="-120" width="10" height="6" fill="#2a3a32" stroke="#88CCAA" stroke-opacity="0.25" stroke-width="0.5"/>

      <!-- Guide lights (on wall faces) -->
      <circle cx="-19" cy="-138" r="2.5" fill="#88CCAA" opacity="0.6"/>
      <circle cx="19" cy="-138" r="2.5" fill="#88CCAA" opacity="0.6"/>
      <circle cx="-19" cy="-126" r="2" fill="#88CCAA" opacity="0.4"/>
      <circle cx="19" cy="-126" r="2" fill="#88CCAA" opacity="0.4"/>

      <!-- Approach guide lines (extending outward) -->
      <line x1="-19" y1="-160" x2="-19" y2="-185" stroke="#88CCAA" stroke-opacity="0.12" stroke-dasharray="4,4" stroke-width="0.5"/>
      <line x1="19" y1="-160" x2="19" y2="-185" stroke="#88CCAA" stroke-opacity="0.12" stroke-dasharray="4,4" stroke-width="0.5"/>

      <!-- Dock floor (darker than void — it's a built surface) -->
      <rect x="-18" y="-155" width="36" height="48" fill="#0a1210" stroke="#88CCAA" stroke-opacity="0.06" stroke-width="0.3"/>
      <!-- Floor markings -->
      <line x1="-12" y1="-131" x2="12" y2="-131" stroke="#88CCAA" stroke-opacity="0.1" stroke-width="0.4"/>
      <text x="0" y="-127" text-anchor="middle" fill="#88CCAA" font-family="monospace" font-size="5" opacity="0.15">DOCK</text>
    </g>

    <!-- ============================================ -->
    <!-- RING 2 — OUTER RING (partial, showing expansion) -->
    <!-- Only segments where Ring 2 modules exist -->
    <!-- Connected to Ring 1 by radial spokes/struts -->
    <!-- ============================================ -->

    <!-- Spoke: Ring 1 Furnace area → Ring 2 Cargo Bay -->
    <g transform="rotate(160)">
      <rect x="-5" y="-225" width="10" height="70" fill="#121a14" stroke="#88CCAA" stroke-opacity="0.1" stroke-width="0.6"/>
      <!-- Strut cross-bracing -->
      <line x1="-5" y1="-220" x2="5" y2="-200" stroke="#88CCAA" stroke-opacity="0.06" stroke-width="0.3"/>
      <line x1="5" y1="-220" x2="-5" y2="-200" stroke="#88CCAA" stroke-opacity="0.06" stroke-width="0.3"/>
      <line x1="-5" y1="-200" x2="5" y2="-180" stroke="#88CCAA" stroke-opacity="0.06" stroke-width="0.3"/>
      <line x1="5" y1="-200" x2="-5" y2="-180" stroke="#88CCAA" stroke-opacity="0.06" stroke-width="0.3"/>
    </g>

    <!-- Spoke: Ring 1 Ore Buyer → Ring 2 Ore Silo -->
    <g transform="rotate(60)">
      <rect x="-5" y="-225" width="10" height="70" fill="#121a14" stroke="#88CCAA" stroke-opacity="0.1" stroke-width="0.6"/>
      <line x1="-5" y1="-215" x2="5" y2="-195" stroke="#88CCAA" stroke-opacity="0.06" stroke-width="0.3"/>
      <line x1="5" y1="-215" x2="-5" y2="-195" stroke="#88CCAA" stroke-opacity="0.06" stroke-width="0.3"/>
    </g>

    <!-- Ring 2 arc segment: Cargo Bay -->
    <g transform="rotate(160)">
      <path d="M -28,-250 L 28,-250 L 28,-218 L -28,-218 Z"
            fill="#141e14" stroke="#B8CC72" stroke-opacity="0.22" stroke-width="0.8"/>
      <rect x="-30" y="-250" width="4" height="32" fill="#1e2818" stroke="#B8CC72" stroke-opacity="0.15" stroke-width="0.3"/>
      <rect x="26" y="-250" width="4" height="32" fill="#1e2818" stroke="#B8CC72" stroke-opacity="0.15" stroke-width="0.3"/>
      <!-- Cargo containers (rectangular blocks) -->
      <rect x="-20" y="-246" width="12" height="10" fill="#1a2414" stroke="#B8CC72" stroke-opacity="0.15" stroke-width="0.4"/>
      <rect x="-4" y="-246" width="12" height="10" fill="#1e2818" stroke="#B8CC72" stroke-opacity="0.12" stroke-width="0.4"/>
      <rect x="10" y="-246" width="12" height="10" fill="#1a2414" stroke="#B8CC72" stroke-opacity="0.15" stroke-width="0.4"/>
      <rect x="-20" y="-232" width="18" height="10" fill="#1e2818" stroke="#B8CC72" stroke-opacity="0.12" stroke-width="0.4"/>
      <rect x="2" y="-232" width="18" height="10" fill="#1a2414" stroke="#B8CC72" stroke-opacity="0.15" stroke-width="0.4"/>
      <!-- Fill indicator -->
      <text x="0" y="-254" text-anchor="middle" fill="#B8CC72" font-family="monospace" font-size="5" opacity="0.2">CARGO</text>
    </g>

    <!-- Ring 2 arc segment: Ore Silo (overflow storage) -->
    <g transform="rotate(60)">
      <path d="M -22,-248 L 22,-248 L 22,-218 L -22,-218 Z"
            fill="#141e14" stroke="#B8CC72" stroke-opacity="0.2" stroke-width="0.8"/>
      <rect x="-24" y="-248" width="4" height="30" fill="#1e2818" stroke="#B8CC72" stroke-opacity="0.12" stroke-width="0.3"/>
      <rect x="20" y="-248" width="4" height="30" fill="#1e2818" stroke="#B8CC72" stroke-opacity="0.12" stroke-width="0.3"/>
      <!-- Silo interior (concentric rect = depth) -->
      <rect x="-14" y="-244" width="28" height="22" fill="#0e160c" stroke="#B8CC72" stroke-opacity="0.1" stroke-width="0.3"/>
      <rect x="-8" y="-240" width="16" height="14" fill="#121a0e" stroke="#B8CC72" stroke-opacity="0.08" stroke-width="0.3"/>
      <!-- Fill level -->
      <rect x="-8" y="-234" width="16" height="8" fill="#B8CC72" opacity="0.05"/>
      <text x="0" y="-252" text-anchor="middle" fill="#B8CC72" font-family="monospace" font-size="5" opacity="0.2">SILO</text>
    </g>

    <!-- Ring 2 partial arc connecting the two modules -->
    <path d="M -180,175 A 230,230 0 0,0 120,-195" fill="none" stroke="#121a14" stroke-width="12"/>
    <path d="M -180,175 A 230,230 0 0,0 120,-195" fill="none" stroke="#88CCAA" stroke-opacity="0.04" stroke-width="12"/>

    <!-- ============================================ -->
    <!-- FLOW DIAGRAM OVERLAY (very subtle) -->
    <!-- Shows: Ore → Hopper → Furnace → Cargo -->
    <!-- ============================================ -->

    <!-- Flow label: ore in -->
    <g transform="rotate(45)">
      <text x="0" y="-172" text-anchor="middle" fill="#B8CC72" font-family="monospace" font-size="7" opacity="0.2">ore in</text>
    </g>

    <!-- Flow label: smelt -->
    <g transform="rotate(135)">
      <text x="0" y="-168" text-anchor="middle" fill="#CCAA44" font-family="monospace" font-size="7" opacity="0.2">smelt</text>
    </g>

    <!-- Flow label: store -->
    <g transform="rotate(160)">
      <text x="0" y="-256" text-anchor="middle" fill="#B8CC72" font-family="monospace" font-size="7" opacity="0.15">store</text>
    </g>

    <!-- ============================================ -->
    <!-- SCAFFOLD SLOT (dashed outline — planned module) -->
    <!-- Shows where next module will be built -->
    <!-- ============================================ -->
    <g transform="rotate(240)">
      <rect x="-26" y="-155" width="52" height="48" fill="none"
            stroke="#CCAA44" stroke-opacity="0.12" stroke-width="0.8" stroke-dasharray="6,4"/>
      <text x="0" y="-131" text-anchor="middle" fill="#CCAA44" font-family="monospace" font-size="6" opacity="0.12">PLANNED</text>
    </g>

  </g>

  <!-- ============================================ -->
  <!-- ANNOTATIONS -->
  <!-- ============================================ -->
  <text x="600" y="1100" text-anchor="middle" fill="#667766" font-family="monospace" font-size="11">Ring plating is continuous structure, not faint arcs. Modules fill their arc segment.</text>
  <text x="600" y="1118" text-anchor="middle" fill="#667766" font-family="monospace" font-size="11">Solar arrays extend inward toward star. Dock is a gap, not a shape. Flow is readable.</text>
  <text x="600" y="1136" text-anchor="middle" fill="#667766" font-family="monospace" font-size="11">Furnace has intake, firebox, output. Hopper has mouth facing outward. Repair has arm.</text>
  <text x="600" y="1158" text-anchor="middle" fill="#555555" font-family="monospace" font-size="10">Ring 2 connected by structural spokes with cross-bracing. Scaffolds show planned expansion.</text>
  <text x="600" y="1176" text-anchor="middle" fill="#555555" font-family="monospace" font-size="10">Compatible with existing ring/slot system. Modules just render as full arc segments instead of icons.</text>
</svg>